<svg xmlns="http://www.w3.org/2000/svg" xmlns:xlink="http://www.w3.org/1999/xlink" width="9.773" height="22.761" viewBox="0 0 9.773 22.761">
  <defs>
    <linearGradient id="linear-gradient" x1="0.5" x2="0.5" y2="1" gradientUnits="objectBoundingBox">
      <stop offset="0" stop-color="#4d0cbb"/>
      <stop offset="1" stop-color="#fd0767"/>
    </linearGradient>
  </defs>
  <path id="AccountPrivacyAndTerm" d="M120.679,7.806a.294.294,0,0,0-.26-.219h-3.406l3.362-7A.485.485,0,0,0,120.383.2a.287.287,0,0,0-.252-.2h-4.6a.291.291,0,0,0-.257.21L110.964,11.59a.486.486,0,0,0,.013.369.282.282,0,0,0,.245.18h2.956l-3.221,10.1a.45.45,0,0,0,.115.471.237.237,0,0,0,.15.056.266.266,0,0,0,.22-.135l9.2-14.415A.479.479,0,0,0,120.679,7.806Z" transform="translate(-110.933)" fill="url(#linear-gradient)"/>
</svg>
