<svg xmlns="http://www.w3.org/2000/svg" width="8.833" height="8.833" viewBox="0 0 8.833 8.833">
  <path id="attachment" d="M4.417,0A4.417,4.417,0,1,0,8.834,4.417,4.417,4.417,0,0,0,4.417,0Zm2.12,3.934-2.9,2.9h0l0,0-.018.018h0a.866.866,0,0,1-.6.229,1.087,1.087,0,0,1-1.059-1,.869.869,0,0,1,.22-.652l0,0L5.046,2.566a.652.652,0,0,1,.918.04.708.708,0,0,1,.209.452A.6.6,0,0,1,6,3.523L3.668,5.858l-.324-.324L5.679,3.2a.141.141,0,0,0,.037-.112.254.254,0,0,0-.076-.158.2.2,0,0,0-.27-.039L2.53,5.73h0a.414.414,0,0,0-.114.327.607.607,0,0,0,.182.386.512.512,0,0,0,.712.07l2.9-2.9A.68.68,0,0,0,6.4,3.074a.952.952,0,0,0-.285-.606.817.817,0,0,0-1.141-.1l-2.4,2.4-.324-.324,2.4-2.4a1.272,1.272,0,0,1,1.789.1,1.41,1.41,0,0,1,.419.9A1.131,1.131,0,0,1,6.538,3.934Z" transform="translate(-0.001)" fill="#fff"/>
</svg>
