<svg xmlns="http://www.w3.org/2000/svg" width="2682" height="2682" viewBox="0 0 2682 2682">
  <g id="brokenHeart" transform="translate(-4932 -783)">
    <circle id="Ellipse_2" data-name="Ellipse 2" cx="1341" cy="1341" r="1341" transform="translate(4932 783)" fill="#ffb623"/>
    <g id="brokenHeart-2" data-name="brokenHeart" transform="translate(5385 1347.177)">
      <g id="Group_56619" data-name="Group 56619" transform="translate(0 23.823)">
        <path id="Path_81249" data-name="Path 81249" d="M795.571,1360.192l97.017-161.254a27.731,27.731,0,0,0-.2-28.406L797.709,1013.21l94.876-157.684a27.779,27.779,0,0,0-.2-28.457L797.706,669.749l94.876-157.684a27.634,27.634,0,0,0,2.053-23.771L836.847,320.338C780.527,177.015,653.888,23.823,467.164,23.823c-128.238,0-247.2,59.017-353.635,175.374C-10.887,335.285-81.134,644.29,163.373,875.382c112.6,106.472,620,640.878,625.115,646.264a29.662,29.662,0,0,0,35.588,5.42,27.5,27.5,0,0,0,13.409-32.278Z" transform="translate(0 -23.823)" fill="#fff"/>
        <path id="Path_81250" data-name="Path 81250" d="M1020.879,199.367C917.618,84.524,795.278,23.823,667.128,23.823c-155.411,0-301.542,116.388-372.281,296.535a27.1,27.1,0,0,0-.4,18.67l53.682,155.98L251.4,655.734a27.02,27.02,0,0,0,0,28.043l94.876,157.711L251.4,999.185a27.021,27.021,0,0,0,0,28.044l94.876,157.684L251.4,1342.623a27,27,0,0,0-2.71,22.044l45.5,146.169A28.561,28.561,0,0,0,315.377,1530a30.353,30.353,0,0,0,6.5.7,29.473,29.473,0,0,0,21.247-8.916c5.116-5.386,516.478-538.644,628.035-646.617C1210.949,643.084,1142.582,334.7,1020.879,199.367Z" transform="translate(644.261 -23.823)" fill="#fff"/>
      </g>
    </g>
  </g>
</svg>
