<svg id="Camera" xmlns="http://www.w3.org/2000/svg" width="24" height="21" viewBox="0 0 24 21">
  <g id="Combined_Shape" data-name="Combined Shape" fill="none" stroke-miterlimit="10">
    <path d="M4,21a4,4,0,0,1-4-4V7A4,4,0,0,1,4,3H6.212l.921-1.348A4.239,4.239,0,0,1,10.261,0h3.492a4.21,4.21,0,0,1,3.119,1.658L17.779,3H20a4,4,0,0,1,4,4V17a4,4,0,0,1-4,4Z" stroke="none"/>
    <path d="M 19.99979972839355 19.49970054626465 C 21.37858009338379 19.49970054626465 22.50030136108398 18.37837982177734 22.50030136108398 17.00010108947754 L 22.50030136108398 7.000200271606445 C 22.50030136108398 5.621420383453369 21.37858009338379 4.49970006942749 19.99979972839355 4.49970006942749 L 17.77854156494141 4.49970006942749 L 16.98153114318848 4.49970006942749 L 16.53546142578125 3.839200258255005 L 15.62932109832764 2.497450351715088 C 15.28928089141846 1.994060277938843 14.35984039306641 1.500000238418579 13.75290107727051 1.500000238418579 L 10.26090049743652 1.500000238418579 C 9.651090621948242 1.500000238418579 8.715021133422852 1.994140267372131 8.371170997619629 2.497490167617798 L 7.450370788574219 3.845690250396729 L 7.003690719604492 4.49970006942749 L 6.211700916290283 4.49970006942749 L 3.999600648880005 4.49970006942749 C 2.621320724487305 4.49970006942749 1.500000715255737 5.621420383453369 1.500000715255737 7.000200271606445 L 1.500000715255737 17.00010108947754 C 1.500000715255737 18.37837982177734 2.621320724487305 19.49970054626465 3.999600648880005 19.49970054626465 L 19.99979972839355 19.49970054626465 M 19.99979972839355 20.99970054626465 L 3.999600648880005 20.99970054626465 C 1.791000723838806 20.99970054626465 6.805419729971618e-07 19.20870018005371 6.805419729971618e-07 17.00010108947754 L 6.805419729971618e-07 7.000200271606445 C 6.805419729971618e-07 4.790700435638428 1.791000723838806 2.999700307846069 3.999600648880005 2.999700307846069 L 6.211700916290283 2.999700307846069 L 7.132500648498535 1.651500225067139 C 7.755300521850586 0.7398002743721008 9.156600952148438 2.731323149873788e-07 10.26090049743652 2.731323149873788e-07 L 13.75290107727051 2.731323149873788e-07 C 14.85630035400391 2.731323149873788e-07 16.25400161743164 0.7425002455711365 16.87230110168457 1.657800316810608 L 17.77854156494141 2.999700307846069 L 19.99979972839355 2.999700307846069 C 22.20930099487305 2.999700307846069 24.00030136108398 4.790700435638428 24.00030136108398 7.000200271606445 L 24.00030136108398 17.00010108947754 C 24.00030136108398 19.20870018005371 22.20930099487305 20.99970054626465 19.99979972839355 20.99970054626465 Z" stroke="none" fill="#fff"/>
  </g>
  <g id="Oval_2" data-name="Oval 2" transform="translate(6 6)" fill="none" stroke="#fff" stroke-miterlimit="10" stroke-width="1.5">
    <circle cx="6" cy="6" r="6" stroke="none"/>
    <circle cx="6" cy="6" r="5.25" fill="none"/>
  </g>
</svg>
