<svg id="clock" xmlns="http://www.w3.org/2000/svg" width="21.304" height="21.304" viewBox="0 0 21.304 21.304">
  <path id="Path_2922" data-name="Path 2922" d="M10.652,0A10.652,10.652,0,1,0,21.3,10.652,10.664,10.664,0,0,0,10.652,0Zm0,20.593a9.942,9.942,0,1,1,9.942-9.942A9.953,9.953,0,0,1,10.652,20.593Z" fill="#fff"/>
  <path id="Path_2923" data-name="Path 2923" d="M22.616,18.835v-3.6a.355.355,0,1,0-.71,0v3.6a1.418,1.418,0,0,0-1.015,1.015H18.355a.355.355,0,0,0,0,.71h2.536a1.417,1.417,0,1,0,1.725-1.725Zm-.355,2.08a.71.71,0,1,1,.71-.71A.711.711,0,0,1,22.261,20.915Z" transform="translate(-11.609 -9.596)" fill="#fff"/>
  <path id="Path_2924" data-name="Path 2924" d="M29.355,7.944a.355.355,0,0,0,.355-.355V7.234a.355.355,0,0,0-.71,0v.355A.355.355,0,0,0,29.355,7.944Z" transform="translate(-18.703 -4.437)" fill="#fff"/>
  <path id="Path_2925" data-name="Path 2925" d="M29.355,49.879a.355.355,0,0,0-.355.355v.355a.355.355,0,1,0,.71,0v-.355A.355.355,0,0,0,29.355,49.879Z" transform="translate(-18.703 -32.169)" fill="#fff"/>
  <path id="Path_2926" data-name="Path 2926" d="M50.71,28.879h-.355a.355.355,0,0,0,0,.71h.355a.355.355,0,0,0,0-.71Z" transform="translate(-32.247 -18.625)" fill="#fff"/>
  <path id="Path_2927" data-name="Path 2927" d="M7.71,28.879H7.355a.355.355,0,0,0,0,.71H7.71a.355.355,0,0,0,0-.71Z" transform="translate(-4.515 -18.625)" fill="#fff"/>
  <path id="Path_2928" data-name="Path 2928" d="M44.2,13.426l-.251.251a.355.355,0,1,0,.5.5l.251-.251a.355.355,0,0,0-.5-.5Z" transform="translate(-28.28 -8.592)" fill="#fff"/>
  <path id="Path_2929" data-name="Path 2929" d="M13.8,43.832l-.251.251a.355.355,0,1,0,.5.5l.251-.251a.355.355,0,0,0-.5-.5Z" transform="translate(-8.67 -28.202)" fill="#fff"/>
  <path id="Path_2930" data-name="Path 2930" d="M44.455,43.832a.355.355,0,1,0-.5.5l.251.251a.355.355,0,0,0,.5-.5Z" transform="translate(-28.28 -28.202)" fill="#fff"/>
  <path id="Path_2931" data-name="Path 2931" d="M14.05,13.426a.355.355,0,1,0-.5.5l.251.251a.355.355,0,1,0,.5-.5Z" transform="translate(-8.67 -8.592)" fill="#fff"/>
</svg>
