<svg xmlns="http://www.w3.org/2000/svg" width="22.369" height="22.369" viewBox="0 0 22.369 22.369">
  <g id="coffee-cup" transform="translate(0 0)">
    <g id="Group_3926" data-name="Group 3926" transform="translate(0 7.66)">
      <g id="Group_3925" data-name="Group 3925">
        <path id="Path_2932" data-name="Path 2932" d="M21.932,176.695H18.35v-.925a.437.437,0,0,0-.437-.437H8.476a.437.437,0,0,0,0,.874h9v3.35a8.324,8.324,0,0,1-4.108,7.165H4.981a8.324,8.324,0,0,1-4.108-7.165v-3.35H3.8a.437.437,0,0,0,0-.874H.437A.437.437,0,0,0,0,175.77v3.786a9.16,9.16,0,0,0,3.445,7.165H.437a.437.437,0,0,0-.437.437,2.887,2.887,0,0,0,2.884,2.884H16.515a2.887,2.887,0,0,0,2.884-2.884.437.437,0,0,0-.437-.437H14.9a9.227,9.227,0,0,0,2.023-2.257h1.233a4.214,4.214,0,0,0,4.209-4.209v-3.124A.437.437,0,0,0,21.932,176.695Zm-3.456,10.9a2.013,2.013,0,0,1-1.962,1.573H2.884A2.013,2.013,0,0,1,.922,187.6H18.477Zm-.127-8.039v-.24h1.4v.939a1.589,1.589,0,0,1-1.587,1.587h-.1A9.2,9.2,0,0,0,18.35,179.556Zm3.146.7a3.339,3.339,0,0,1-3.335,3.335h-.744a9.122,9.122,0,0,0,.373-.874h.371a2.464,2.464,0,0,0,2.461-2.461v-1.376a.437.437,0,0,0-.437-.437H18.35v-.874H21.5Z" transform="translate(0 -175.333)" fill="#fff"/>
      </g>
    </g>
    <g id="Group_3928" data-name="Group 3928" transform="translate(8.239 0)">
      <g id="Group_3927" data-name="Group 3927" transform="translate(0 0)">
        <path id="Path_2933" data-name="Path 2933" d="M189.938,2.418l-.227-.285a1.139,1.139,0,0,1,0-1.424.437.437,0,1,0-.684-.543,2.009,2.009,0,0,0,0,2.512l.227.285a1.488,1.488,0,0,1,0,1.861l-.233.294a.437.437,0,1,0,.684.543l.233-.294A2.358,2.358,0,0,0,189.938,2.418Z" transform="translate(-188.585 0)" fill="#fff"/>
      </g>
    </g>
    <g id="Group_3930" data-name="Group 3930" transform="translate(10.661 0.982)">
      <g id="Group_3929" data-name="Group 3929">
        <path id="Path_2934" data-name="Path 2934" d="M245.367,24.9l-.227-.285a1.139,1.139,0,0,1,0-1.424.437.437,0,1,0-.684-.543,2.009,2.009,0,0,0,0,2.512l.227.285a1.489,1.489,0,0,1,0,1.861l-.233.293a.437.437,0,1,0,.684.543l.233-.293A2.358,2.358,0,0,0,245.367,24.9Z" transform="translate(-244.014 -22.484)" fill="#fff"/>
      </g>
    </g>
    <g id="Group_3932" data-name="Group 3932" transform="translate(5.818 0.982)">
      <g id="Group_3931" data-name="Group 3931">
        <path id="Path_2935" data-name="Path 2935" d="M134.509,24.9l-.227-.285a1.139,1.139,0,0,1,0-1.424.437.437,0,1,0-.684-.543,2.009,2.009,0,0,0,0,2.512l.227.285a1.488,1.488,0,0,1,0,1.861l-.233.293a.437.437,0,1,0,.684.543l.233-.294A2.358,2.358,0,0,0,134.509,24.9Z" transform="translate(-133.156 -22.485)" fill="#fff"/>
      </g>
    </g>
    <g id="Group_3934" data-name="Group 3934" transform="translate(5.82 7.66)">
      <g id="Group_3933" data-name="Group 3933">
        <path id="Path_2936" data-name="Path 2936" d="M133.956,175.458a.437.437,0,1,0,.128.309A.44.44,0,0,0,133.956,175.458Z" transform="translate(-133.21 -175.33)" fill="#fff"/>
      </g>
    </g>
    <g id="Group_3936" data-name="Group 3936" transform="translate(13.448 11.447)">
      <g id="Group_3935" data-name="Group 3935">
        <path id="Path_2937" data-name="Path 2937" d="M310.163,262a.437.437,0,0,0-.437.437,6.26,6.26,0,0,1-1.8,4.373.437.437,0,1,0,.621.615,7.14,7.14,0,0,0,2.058-4.988A.437.437,0,0,0,310.163,262Z" transform="translate(-307.795 -262)" fill="#fff"/>
      </g>
    </g>
    <g id="Group_3938" data-name="Group 3938" transform="translate(12.012 17.22)">
      <g id="Group_3937" data-name="Group 3937">
        <path id="Path_2938" data-name="Path 2938" d="M275.773,394.359a.437.437,0,0,0-.6-.166l-.01.006a.437.437,0,1,0,.429.761l.01-.006A.437.437,0,0,0,275.773,394.359Z" transform="translate(-274.945 -394.136)" fill="#fff"/>
      </g>
    </g>
  </g>
</svg>
