<svg xmlns="http://www.w3.org/2000/svg" width="19.7" height="19.7" viewBox="0 0 19.7 19.7">
  <path id="comments" d="M5.358,22.282a1.608,1.608,0,0,0,2.06,2.06l2.955-.716A9.577,9.577,0,0,0,14.85,24.7a9.787,9.787,0,1,0-8.776-5.328l-.716,2.91ZM7.91,19.462a.9.9,0,0,0-.09-.672,8.062,8.062,0,1,1,3.089,3.089.868.868,0,0,0-.672-.09L7.1,22.551l.806-3.089ZM18.88,13.955a.9.9,0,0,0,0-1.791H10.82a.9.9,0,1,0,0,1.791Zm0,3.582a.9.9,0,0,0,0-1.791H13.507a.9.9,0,0,0,0,1.791Z" transform="translate(-5 -5)" fill="#78849e"/>
</svg>
