<svg xmlns="http://www.w3.org/2000/svg" xmlns:xlink="http://www.w3.org/1999/xlink" width="24.029" height="23.04" viewBox="0 0 24.029 23.04">
  <defs>
    <linearGradient id="linear-gradient" x1="0.5" x2="0.5" y2="1" gradientUnits="objectBoundingBox">
      <stop offset="0" stop-color="#4d0cbb"/>
      <stop offset="1" stop-color="#fd0767"/>
    </linearGradient>
  </defs>
  <g id="icons_share" data-name="icons/share" transform="translate(-1.733 -2)">
    <g id="expressIcon" transform="translate(-318.267 -732.581)">
      <g id="pencil-edit-button" transform="matrix(0.966, -0.259, 0.259, 0.966, 319.666, 738.554)">
        <path id="Path_2985" data-name="Path 2985" d="M11.53,4.368,15.3,8.14,5.755,17.687l-3.77-3.772Zm6.634-.91L16.482,1.776a1.669,1.669,0,0,0-2.358,0L12.513,3.388l3.772,3.772L18.164,5.28A1.286,1.286,0,0,0,18.164,3.458ZM.011,19.217a.429.429,0,0,0,.519.511l4.2-1.019L.964,14.937Z" transform="translate(0)" fill="#fff"/>
      </g>
      <g id="icon_add_light" data-name="icon/add/light" transform="translate(17.097 56.659)">
        <g id="Path_2986" data-name="Path 2986" transform="translate(319.903 677.923)" fill="#fff">
          <path d="M 3.5145263671875 6.779056549072266 C 1.71445631980896 6.779056549072266 0.2499963641166687 5.314596176147461 0.2499963641166687 3.5145263671875 C 0.2499963641166687 1.71445631980896 1.71445631980896 0.2499963641166687 3.5145263671875 0.2499963641166687 C 5.314596176147461 0.2499963641166687 6.779056549072266 1.71445631980896 6.779056549072266 3.5145263671875 C 6.779056549072266 5.314596176147461 5.314596176147461 6.779056549072266 3.5145263671875 6.779056549072266 Z" stroke="none"/>
          <path d="M 3.5145263671875 0.4999961853027344 C 1.852306365966797 0.4999961853027344 0.4999961853027344 1.852306365966797 0.4999961853027344 3.5145263671875 C 0.4999961853027344 5.176746368408203 1.852306365966797 6.529056549072266 3.5145263671875 6.529056549072266 C 5.176746368408203 6.529056549072266 6.529056549072266 5.176746368408203 6.529056549072266 3.5145263671875 C 6.529056549072266 1.852306365966797 5.176746368408203 0.4999961853027344 3.5145263671875 0.4999961853027344 M 3.5145263671875 -3.814697265625e-06 C 5.455546379089355 -3.814697265625e-06 7.029056549072266 1.573506355285645 7.029056549072266 3.5145263671875 C 7.029056549072266 5.455546379089355 5.455546379089355 7.029056549072266 3.5145263671875 7.029056549072266 C 1.573506355285645 7.029056549072266 -3.814697265625e-06 5.455546379089355 -3.814697265625e-06 3.5145263671875 C -3.814697265625e-06 1.573506355285645 1.573506355285645 -3.814697265625e-06 3.5145263671875 -3.814697265625e-06 Z" stroke="none" fill="#fff"/>
        </g>
        <g id="union" transform="translate(321.441 679.461)" fill="url(#linear-gradient)">
          <path d="M1.917,4.032V2.313H.2a.2.2,0,1,1,0-.4H1.917V.2a.2.2,0,1,1,.4,0V1.917H4.032a.2.2,0,0,1,0,.4H2.313V4.032a.2.2,0,0,1-.4,0Z" stroke="none"/>
          <path d="M 2.115000009536743 4.230000019073486 C 2.005199909210205 4.230000019073486 1.91700005531311 4.141799926757812 1.91700005531311 4.032000064849854 L 1.91700005531311 2.312999963760376 L 0.1980000138282776 2.312999963760376 C 0.08910001069307327 2.312999963760376 9.536742950899679e-09 2.224800109863281 9.536742950899679e-09 2.115000009536743 C 9.536742950899679e-09 2.005199909210205 0.08910001069307327 1.91700005531311 0.1980000138282776 1.91700005531311 L 1.91700005531311 1.91700005531311 L 1.91700005531311 0.1980000138282776 C 1.91700005531311 0.08910001069307327 2.005199909210205 9.536742950899679e-09 2.115000009536743 9.536742950899679e-09 C 2.224800109863281 9.536742950899679e-09 2.312999963760376 0.08910001069307327 2.312999963760376 0.1980000138282776 L 2.312999963760376 1.91700005531311 L 4.032000064849854 1.91700005531311 C 4.141799926757812 1.91700005531311 4.230000019073486 2.005199909210205 4.230000019073486 2.115000009536743 C 4.230000019073486 2.224800109863281 4.141799926757812 2.312999963760376 4.032000064849854 2.312999963760376 L 2.312999963760376 2.312999963760376 L 2.312999963760376 4.032000064849854 C 2.312999963760376 4.141799926757812 2.224800109863281 4.230000019073486 2.115000009536743 4.230000019073486 Z" stroke="none" fill="#4d0cbb"/>
        </g>
      </g>
    </g>
  </g>
</svg>
