<svg xmlns="http://www.w3.org/2000/svg" xmlns:xlink="http://www.w3.org/1999/xlink" width="16" height="16" viewBox="0 0 16 16">
  <defs>
    <clipPath id="clip-path">
      <rect width="16" height="16" fill="none"/>
    </clipPath>
    <linearGradient id="linear-gradient" x1="0.5" x2="0.5" y2="1" gradientUnits="objectBoundingBox">
      <stop offset="0" stop-color="#4d0cbb"/>
      <stop offset="1" stop-color="#fd0767"/>
    </linearGradient>
  </defs>
  <g id="File" clip-path="url(#clip-path)">
    <rect id="Rectangle_314" data-name="Rectangle 314" width="16" height="16" fill="none"/>
    <path id="Path_125" data-name="Path 125" d="M5.6,16a5.045,5.045,0,0,1-3.733-1.6A5.151,5.151,0,0,1,0,10.4a5.35,5.35,0,0,1,.4-2,4.611,4.611,0,0,1,.933-1.6L4,4.133A3.213,3.213,0,0,1,6.4,3.2,3.643,3.643,0,0,1,8.933,4.267,3.424,3.424,0,0,1,10,6.933a3.213,3.213,0,0,1-.933,2.4L7.6,10.667a1.018,1.018,0,0,1-.667.267,1.43,1.43,0,0,1-.8-.267,1.9,1.9,0,0,1-.267-.8,1.9,1.9,0,0,1,.267-.8L7.6,7.6A.806.806,0,0,0,8,6.8a1.629,1.629,0,0,0-.533-1.2,1.554,1.554,0,0,0-.933-.267A1.927,1.927,0,0,0,5.6,5.6L2.8,8.267A3.689,3.689,0,0,0,2.133,10.4,3.9,3.9,0,0,0,3.2,12.933a2.767,2.767,0,0,0,1.333.8,2.3,2.3,0,0,0,1.333.133c.4-.133.8-.133,1.067-.267a2.789,2.789,0,0,0,.8-.533l5.333-5.333A2.924,2.924,0,0,0,14,5.467a3.493,3.493,0,0,0-1.2-2.533,5.937,5.937,0,0,0-1.6-.8H10a2.823,2.823,0,0,0-.933.4,1.691,1.691,0,0,1-.8.133A.886.886,0,0,1,7.6,2.133c-.133-.133-.133-.4-.133-.8A2.341,2.341,0,0,1,8,.667,5.251,5.251,0,0,1,10.667,0a4.936,4.936,0,0,1,3.467,1.333,5.626,5.626,0,0,1,1.867,4A5.218,5.218,0,0,1,14.533,9.2L9.2,14.533A4.924,4.924,0,0,1,5.6,16Z" fill="url(#linear-gradient)"/>
  </g>
</svg>
