<svg xmlns="http://www.w3.org/2000/svg" xmlns:xlink="http://www.w3.org/1999/xlink" width="2682" height="2682" viewBox="0 0 2682 2682">
  <defs>
    <clipPath id="clip-path">
      <path id="Path_10" data-name="Path 10" d="M8717,1868c104-21,209-43,343-60,135-16,301-27,449-32,148-6,278-6,409,2,130,8,261,23,390,42,129,20,258,44,386,68,0,96,0,191-26,304-26,114-78,244-159,358-80,114-189,212-279,277-91,64-162,94-245,118s-176,41-269,43c-92,1-183-15-273-40-89-25-176-59-270-123-95-63-197-154-276-262-78-107-132-231-158-350C8712,2095,8715,1981,8717,1868Z" clip-rule="evenodd"/>
    </clipPath>
  </defs>
  <g id="haha" transform="translate(-8417 -783)">
    <circle id="Ellipse_3" data-name="Ellipse 3" cx="1341" cy="1341" r="1341" transform="translate(8417 783)" fill="#fcdc6b"/>
    <g id="Group_5" data-name="Group 5">
      <g id="Group_4" data-name="Group 4">
        <path id="Path_7" data-name="Path 7" d="M8892,1334c0,74,85,83,145,106l14,6c-31,8-198,42-218,54-22,12-34,34-37,57v19c4,33,30,63,79,63,23,0,50-10,74-15l214-49c34-8,185-35,208-54,41-34,38-85,9-115-13-12-37-20-54-26-66-22-316-117-363-117C8926,1263,8892,1298,8892,1334Z" fill="#201e1e" fill-rule="evenodd"/>
        <path id="Path_8" data-name="Path 8" d="M10083,1488c0,63,50,75,95,84,48,10,96,23,143,33l214,49c41,10,50,14,91,14,28,0,62-35,62-63,0-79-41-79-105-95-50-13-100-23-150-34l122-46c2-1,7-5,10-7,53-47,25-131-52-131-18,0-99,29-118,36-66,26-173,57-233,81C10123,1424,10083,1435,10083,1488Z" fill="#201e1e" fill-rule="evenodd"/>
      </g>
    </g>
    <path id="Path_9" data-name="Path 9" d="M8717,1868c104-21,209-43,343-60,135-16,301-27,449-32,148-6,278-6,409,2,130,8,261,23,390,42,129,20,258,44,386,68,0,96,0,191-26,304-26,114-78,244-159,358-80,114-189,212-279,277-91,64-162,94-245,118s-176,41-269,43c-92,1-183-15-273-40-89-25-176-59-270-123-95-63-197-154-276-262-78-107-132-231-158-350C8712,2095,8715,1981,8717,1868Z" fill="#201e1e" fill-rule="evenodd"/>
    <g id="Group_7" data-name="Group 7" clip-path="url(#clip-path)">
      <g id="Group_6" data-name="Group 6">
        <ellipse id="Ellipse_4" data-name="Ellipse 4" cx="828" cy="595" rx="828" ry="595" transform="translate(8882 2388)" fill="#f50953"/>
      </g>
    </g>
    <path id="Path_11" data-name="Path 11" d="M8717,1868c104-21,209-43,343-60,135-16,301-27,449-32,148-6,278-6,409,2,130,8,261,23,390,42,129,20,258,44,386,68,0,96,0,191-26,304-26,114-78,244-159,358-80,114-189,212-279,277-91,64-162,94-245,118s-176,41-269,43c-92,1-183-15-273-40-89-25-176-59-270-123-95-63-197-154-276-262-78-107-132-231-158-350C8712,2095,8715,1981,8717,1868Z" fill="none" fill-rule="evenodd"/>
  </g>
</svg>
