<svg xmlns="http://www.w3.org/2000/svg" width="27.238" height="9.332" viewBox="0 0 27.238 9.332">
  <path id="HDR" d="M21.892,9.332H20.805V0h3.316a2.679,2.679,0,0,1,2.953,2.755,2.622,2.622,0,0,1-1.742,2.6l1.906,3.977-1.25,0L24.251,5.578H21.892V9.331Zm0-8.341v3.6H23.93c1.324,0,2.023-.607,2.023-1.757A1.736,1.736,0,0,0,23.984.991ZM1.087,9.332H0V0H1.087V4H5.913V0H7V9.33H5.913V4.983H1.087V9.331Zm12.491,0H10.652V0h2.926a3.859,3.859,0,0,1,3.054,1.181,5.181,5.181,0,0,1,1.034,3.488,5.167,5.167,0,0,1-1.034,3.482A3.862,3.862,0,0,1,13.578,9.331ZM11.74.985V8.339h1.8a2.751,2.751,0,0,0,2.255-.915,4.307,4.307,0,0,0,.747-2.755,4.33,4.33,0,0,0-.75-2.766A2.746,2.746,0,0,0,13.537.985Z" transform="translate(0 0)" fill="#fff"/>
</svg>
