<?xml version="1.0" encoding="UTF-8"?>
<svg enable-background="new 0 0 1920 1080" version="1.1" viewBox="0 0 1920 1080" xml:space="preserve" xmlns="http://www.w3.org/2000/svg">
<radialGradient id="a" cx="18" cy="1066" r="1870.5" gradientUnits="userSpaceOnUse">
	<stop stop-color="#70FEFF" offset="0"/>
	<stop stop-color="#46AFF3" offset=".5"/>
	<stop stop-color="#3E9CD8" offset=".576"/>
	<stop stop-color="#3280B2" offset=".7027"/>
	<stop stop-color="#2A6C97" offset=".8197"/>
	<stop stop-color="#255F86" offset=".9226"/>
	<stop stop-color="#235B80" offset="1"/>
</radialGradient>
<rect width="1920" height="1080" fill="url(#a)"/>
	<path d="m1766.4 420.4c5.25-5.3 13.2-4.24 19.95-3.78 2.79 1.8 5.64 3.65 7.7 6.32 3.17 4.12 4.91 9.09 7.0801 13.77 2.6699 6.25 6.86 11.77 11.82 16.39-5.87 3.16-11.57 6.89-15.92 12.02-4.6101 5.55-9.3201 11.44-16.19 14.28-6.05 0.69-12.53-0.25-17.51-3.95-4.2-2.59-7.28-7.4-7.0499-12.42-0.5-7.91 6.45-14.39 13.79-15.93-2.9299-3.14-6.02-6.31-7.74-10.29-1.9501-5.64-0.8-12.59 4.07-16.41z" fill="#FF2728"/>
	<path d="m1855.9 456c2.2999-1.7 5.27-2.66 8.1599-2.42 5.2201 1 9.6901 5.96 9.0901 11.46-0.41 6.23-1.9501 12.51-0.35 18.72-3.1801-0.1-6.4901-0.72-9.52 0.53-3.88 1.47-8.01 2-12.06 2.69-4.51-1.56-9.02-5.22-9.65-10.21-0.75-4.72 3.41-9.87 8.3301-9.43 1.47 0.05 2.97 0.14 4.49 0.24-1.43-3.85-1.2101-8.36 1.51-11.58z" fill="#E1E1E1"/>
	<path d="m1589 503.94c5.72-5.23 13.74-6.53 21.22-6.73 6.4399 0.22 13.11 2.16 17.85 6.73 6.8 5.93 9.13 16.29 5.5701 24.58-1.9701 5.84-6.55 10.05-10.63 14.43 8.0399 0.62 15.69 5.19 20.1 11.93 4.4299 6.43 4.73 15.33 1.2999 22.26-7.5199 14.06-27.57 20.44-41.36 11.89-6.5299-4.42-12-10.09-17.68-15.48-6.55-5.5-13.79-10.42-21.79-13.53-1.5-0.49-3.01-0.71-4.52-0.96 8.78-8.32 14.22-19.54 17.41-31.07 2.6199-8.65 5.43-17.94 12.53-24.05z" fill="#E1E1E1"/>
	<path d="m1288.9 513.92c-3.7699-6.7 3.3101-15.73 10.68-14.33 3.61 1.41 5.66 5.07 6.24 8.76 3.04-2.36 6.9-3.34 10.69-2.37 2.0599 1.82 4.37 3.99 4.34 6.99 0.08 4.05-1.33 8.95-5.4401 10.58-5.12 2.19-11.04 2.1-15.75 5.32-0.47 0.25-1.4099 0.74-1.88 0.99-1.0099-6.33-6.06-10.53-8.8801-15.94z" fill="#E1E1E1"/>
	<path d="m1202.6 510.52c2.61-3.81 8.5699-4.26 11.97-1.27 3 2.2 4.37 5.73 5.87 9-1.85 7.75-7.6 14.29-7.33 22.57-5.9701-4-13.47-2.73-20.22-3.62-6.98-2.19-10.8-11.54-6.1599-17.54 3.0599-4.46 9.5499-3.67 13.48-0.85 0.11-2.9 0.48-5.97 2.39-8.29z" fill="#E1E1E1"/>
	<path d="m1829.2 510.11c4.6101-2.04 9.8501-0.54 14.16 1.58 5.37 2.63 11.25 4.59 17.32 4.1-1.79 3.81-2.77 7.97-2.87 12.17-0.37 5.6 1.2699 11.86-2.0701 16.85-3.99 5.26-12.12 8.07-18.06 4.52-5.54-3.48-5.89-11.87-1.9-16.66-2.37 0.02-4.72 0.01-7.05-0.24-3.3199-1.5-6.51-3.93-7.4299-7.63-1.7801-6.06 2.7499-11.99 7.8998-14.69z" fill="#E1E1E1"/>
	<path d="m1260.8 518.8c5.5599-6.24 15.94-7.35 22.64-2.3 5.9601 4.58 10.31 11.82 10.35 19.46 0.1 6.84-4.05 12.68-8.04 17.86-6.24 7.77-11.99 16.54-13.69 26.53-7.4401-5.64-16.31-9.12-25.49-10.61-7.72-1.29-16.13-3.54-20.99-10.18-3.75-5.8-5.09-12.99-3.95-19.78 1.11-4.79 3.87-9.44 8.28-11.85 4.7799-2.82 10.87-3.01 15.92-0.77 3.37 1.31 5.99 3.85 8.87 5.96 0.7001-5.2 2.2101-10.57 6.1001-14.32z" fill="#E1E1E1"/>
	<path d="m1641.3 535.72c-2.29-5.95 1.0499-14.23 7.73-15.4 3.96-0.75 7.41 1.93 9.58 4.98 0.2001 0.45 0.61 1.35 0.8101 1.8 1.87-2.58 3.88-5.39 7.11-6.33 4.98-1.78 10.39 2.21 11.38 7.13-1.8199 2.09-1.42 4.91-0.08 7.14-0.63 2.81-3.2101 4.63-5.37 6.29-4.91 3.29-10.63 6.43-12.86 12.25-0.7599-3.24-3.4099-5.48-5.83-7.52-4.37-3.16-9.78-5.38-12.47-10.34z" fill="#E1E1E1"/>
	<path d="m1163.9 534.92c1.87-3.37 5.88-6.65 9.89-4.67 3.2 1.21 4.1 4.74 4.85 7.72 3-3.28 8.05-3.49 11.38-0.5099 1.64 2.71 2.13 6.09 0.59 8.99-1.22 3.97-5.61 5.24-9.2599 5.84-3.7001 0.5-6.9901 2.27-10.34 3.76-0.6599-3.55-2.2-6.83-4.5599-9.54-2.4401-3.1101-5.0601-7.8301-2.5501-11.59z" fill="#E1E1E1"/>
	<path d="m1756.3 540.24c4.0399-5.24 10.33-8.09 16.69-9.35 8.91-1.41 19.01-0.16 25.73 6.39 7.0801 6.22 8.73 17.17 4.86 25.57-2.02 5.25-6.5 8.79-9.89 13.08 12.37 1.33 24.14 12.08 23.56 25.07-0.36 10.91-9.1 19.71-19.02 23.05-5.1799 1.67-10.84 3.45-16.24 1.66-11.24-2.92-18.72-12.44-27.1-19.76-7.38-6.02-15.57-11.64-24.91-13.98 7.91-8.33 13.58-18.62 16.56-29.71 2.3698-7.6599 4.5698-15.71 9.7599-22.02z" fill="#E1E1E1"/>
	<path d="m1688.1 536.95c4.3601-1.32 9.7201 2.23 9.4601 7 0.0499 2.48-1.3301 4.59-3.1 6.19 4.72-0.38 9 4.05 8.3899 8.75-1.6399 5.87-9.72 8.78-14.59 4.89-3.6-2.86-7.48-5.47-12.04-6.4901 2.1801-3.34 3.7201-7.11 4.0901-11.11 0.48-4.1999 3.2-8.7699 7.7899-9.2299z" fill="#E1E1E1"/>
	<path d="m1188.4 553.43c6.83-2.5 14.49 0.74 18.96 6.12 4.29 6.25 5.4501 14.3 3.77 21.61-2.73 8.54-11.13 13.08-18.22 17.58-7.0901 4.58-13.69 10.41-17.93 17.8-4.52-8.11-12.01-14.09-19.91-18.73-5.8199-3.55-12.14-7.24-15.19-13.65-4.29-7.39-2.05-16.53 1.9-23.56 3.27-4.6 8.4199-8.17 14.21-8.29 4.3-0.16 8.27 1.82 11.72 4.2 2.99 2.68 5.3501 5.97 7.13 9.57 2.88-5.6 7.3499-10.77 13.56-12.65z" fill="#E1E1E1"/>
	<path d="m1293.1 561.06c6.0599-5.88 14.69-8.84 23.08-7.39 5 1.9 10.07 4.54 12.92 9.29 4.25 6.17 4.88 13.91 4.3 21.18 4.34-2.35 8.86-4.58 13.82-5.24 10.73-1.71 22.26 5.43 24.97 16.06 2.36 10.28-1.13 21.32-8.1699 29.03-3.4601 3.71-8.3201 5.49-12.98 7.15-12.3 1.57-24.84-0.01-37.01 2.71-5.1201 0.9301-10.08 2.6801-14.63 5.19-0.55-10.26-2.54-20.51-7.29-29.7-0.1901-0.39-0.58-1.1801-0.78-1.58-3.87-7.81-8.28-15.77-8.72-24.67-0.26-8.54 4.6-16.26 10.49-22.03z" fill="#E1E1E1"/>
	<path d="m1527.8 570.06c0.3199-7.02 6.08-13.8 13.24-14.28 6.0699 0.16 9.3099 6 10.94 11.1 3.6901-2.78 7.76-5.36 12.59-5.23 2.41 1.4 5.14 2.67 6.4801 5.29 3.0699 4.71 1.86 10.87-0.4401 15.63-2.58 3.1-6.3 5.2-10.23 6-5.99 1.84-11.89 4.37-16.56 8.65-1.6999-11.12-14.61-16.01-16.02-27.16z" fill="#E1E1E1"/>
	<path d="m1377.2 586.98c2.02-5.08 6.89-9.91 12.78-8.94 4.49 1.17 6.4301 6.01 7.4401 10.1 3.45-2.63 8.37-4.33 12.44-2.1 7.22 4.73 4.77 17.33-3.26 19.65-6.38 1.6-13.13 2.58-18.48 6.73-0.99-4.58-3.15-8.78-6.08-12.4-3.06-3.67-5.33-8.12-4.84-13.04z" fill="#E1E1E1"/>
	<path d="m1458.6 581.59c4.59-3.88 11.01-2.31 16.38-1.4 6.1 1.48 12.58 1.94 18.69 0.19-0.6899 5.33-0.99 10.87 0.6901 16.07 1.6899 6.01 3.71 12.81 0.73 18.77-3.12 5.47-9.5599 8.59-15.74 8.6-2.77-1.07-5.65-2.3-7.5-4.72-3-3.91-3.22-9.42-1.36-13.88-3.59 0.82-7.47 1.97-11.02 0.41-4.59-1.38-8.0699-5.78-8.13-10.6-0.4399-5.45 3.33-10.13 7.26-13.44z" fill="#E1E1E1"/>
	<path d="m1635.3 596.87c5.01-1.74 10.96-2.04 15.36 1.43 6.0901 4.39 7 12.88 4.8201 19.62 4.1-1.63 8.66-2.2 13.02-1.28 6.99 1.73 12.1 9.21 10.74 16.37-1.13 5.34-4.0801 10.41-8.4501 13.73-5.1699 3.83-11.99 3.17-17.95 2.2-8.12-1.57-16.77-2.44-24.73 0.32-0.02-0.55-0.0701-1.65-0.09-2.2 0.47-3.33 0.58-6.72 0.0599-10.04-1.04-8.81-6.08-17.03-4.61-26.11 1.1301-6.41 6.6702-10.72 11.83-14.04z" fill="#E1E1E1"/>
	<path d="m1408.1 608.71c9.4301-3.3 18.55 4.2599 22.4 12.4 2.86-4.79 6.4199-9.66 11.9-11.6 7.6799-3.51 17.16 0.94 20.75 8.25 2.83 5.82 4.7999 12.99 1.63 19.09-2.42 6.15-8.05 10.09-13.47 13.42-8.0599 4.79-15.72 10.8-20.57 18.97-2.8101-3.88-5.74-7.71-9.41-10.82-6.47-5.67-14.89-8.69-20.89-14.93-9.96-10.08-5.61-29.79 7.66-34.78z" fill="#E1E1E1"/>
	<path d="m1524.1 617.95c4.61-3.7 10.39-5.19 15.82-7.25 5.3201-0.76 10.7 0.82 16.03-0.35 13.9 0.53 25.44 11.11 31.22 23.2 5.3201 10.28 5.0701 22.26 4.24 33.5 4-1.74 7.4401-4.61 11.62-6 3.6799-1.49 7.71-1.81 11.41-3.33 4.5-0.48 9.0701-0.52 13.58-0.03 10.17 0.98 19.56 6.35 26.53 13.68 4.5601 5.05 7.38 11.36 9.54 17.74 0.01 6.3 0.7 12.63-0.11 18.92-0.6 4.15-2.02 8.1299-3.11 12.17-1.7001 5.16-4.9401 9.59-7.62 14.26-7.8101 12.69-22.62 19.96-37.28 20.34-3.01 0.26-6 0.59-8.98 0.82-7.35 0.08-14.69-0.18-22.03-0.13-5.4 0.19-10.9-0.43-16.16 1.08-11.36 1.91-22.91 3.38-33.67 7.7-2.8401 0.65-5.36 2.11-7.75 3.71-0.6-1.99-0.23-4.03-0.1-6.03 0.0399-10.76-2.8201-21.2-5.7401-31.47-1.2-3.09-2.35-6.22-2.3899-9.57-0.1101 1.06-0.2101 2.13-0.28 3.21-0.48-5.2-3.7001-9.49-5.61-14.21-3.3201-7.54-8.5701-14.38-9.66-22.73-0.33 6.96 1.1899 14.52-2.58 20.85-3.99 7.22-12.26 10.06-19.57 12.63-6.83 2.35-13.32 5.69-19.02 10.12-1.51 1.2599-2.9199 2.6299-4.33 3.99-2.89-9.33-9.38-16.93-16.53-23.33-6.27-5.73-12.51-13.39-11.21-22.47 1.0499-6.8 4.02-13.7 9.83-17.72 6.04-4.42 15.15-4.28 20.8 0.76 4.3199 3.45 6.54 8.74 7.7999 13.99 4.28-6.08 11.38-10.27 18.96-9.81 5.48 0.52 9.98 3.95 13.42 8.05-0.46-2.32-0.83-4.58-1.6699-6.76-2.8-9.67-2.92-20.22 0.45-29.77 4.7601-12.08 13.45-22.48 24.15-29.76z" fill="#E1E1E1"/>
	<path d="m1199 619.24c7.86-2.72 17.24-0.08 22.52 6.36 1.48 3.2401 3.39 6.7401 2.34 10.42-1.12 6.45-7.0299 10.72-12.94 12.53 5.03 4.33 9.24 10.53 7.55 17.51-1.55 5.08-5.8201 9.2-11.11 10.14-5.5299 0.92-11.93 0.72-16.32-3.21-4.73-4.17-6.5-10.44-9.0699-15.95-2.4701-5.77-6.1001-11.02-10.86-15.12 0.9501-0.42 1.91-0.83 2.89-1.26 10.42-4.57 15.53-15.6 25-21.42z" fill="#E1E1E1"/>
	<path d="m1727.8 621.8c2.35-2.61 5.99-3 9.26-3.57 2.17 1.59 4.75 3.11 5.58 5.87 1.14 2.3-0.12 4.79-0.5199 7.12 2.12 0.01 4.34-0.28 6.47 0.22 2.45 0.93 4.1799 3.27 4.98 5.71 0.61 3.91-1.73 7.56-4.85 9.71-3.12 2.64-7.61 1.68-11.1 0.4-3.99-1.52-8.3-1.82-12.49-1.18 1.11-4.4 1.35-9.01 0.24-13.44-1.0101-3.71-0.6201-8.16 2.4299-10.84z" fill="#E1E1E1"/>
	<path d="m1264.9 623.93c3.3-4.32 9.25-6.04 14.43-4.48 3.87 3.18 4.85 8.37 3.13 12.96 2.15-0.3199 4.3199-0.91 6.54-0.7599 3.83 0.3199 7.22 3.59 7.5399 7.46 0.5 4.9-2.7899 9.48-6.99 11.69-3.65 1.59-7.7 0.41-11.44-0.16-4.24-0.86-8.5701-0.47-12.82-0.01 0.4501-4.22 0.52-8.54-0.6899-12.64-1.24-4.5501-2.23-9.7501 0.2999-14.06z" fill="#E1E1E1"/>
	<path d="m1837.6 628.47c2.54-5.22 8.9701-8.17 14.57-6.5 6.0699 1.79 11.58 6.61 13.01 12.95 1.0499 5.54-1.3101 10.89-2.5801 16.18-1.6699 5.79-1.62 11.88-1.0599 17.83-6.41-1.8-13.18-1.85-19.66-0.42-6.14 1.26-13.36 2.46-18.7-1.66-3.5901-3.05-6.3201-7.22-7.3401-11.83-1.6-6.34 2.89-13.39 9.2101-14.85 3.87-1.34 8.0699-0.44 11.59 1.46-0.3701-4.36-1.2601-9.12 0.9599-13.16z" fill="#E1E1E1"/>
	<path d="m1234.5 628.72c4.0599-2.99 10.25-1.06 13.03 2.82 3.88 6.84-0.22 15.17 3.15 22.24-3.87 0.34-7.78 0.8199-11.27 2.62-3.85 1.63-8.8199 3.5699-12.57 0.7-3.54-1.96-6.33-5.8199-5.42-10.03 0.73-4.9 6.42-7.17 10.85-6.26-1.7601-3.9001-1.8702-9.6401 2.2299-12.09z" fill="#E1E1E1"/>
	<path d="m1335.1 637.12c3.41-3.54 8.64-5.18 13.5-4.41 3.53 1.67 7.49 3.86 8.35 8.05 1.47 4.35-1.29 8.57-3.74 11.97 3.0601 0.77 6.3201 1.26 9.02 3.03 3.0599 3.11 4.6799 8.03 2.8199 12.19-1.45 4.82-6.63 6.54-10.73 8.42-2.0599 0.35-4.27 0.6-6.14-0.48-4.33-2.26-8.34-5.06-12.45-7.66-3.15-1.97-6.91-2.47-10.41-3.48 0.9501-1.59 1.89-3.19 2.75-4.83 3.8701-7.1 1.8001-16.29 7.0301-22.8z" fill="#E1E1E1"/>
	<path d="m1306 640.99c2.33-1.33 5.03-2.43 7.77-2.26 4.4 0.98 8.9099 4.47 9.0599 9.31 0.2101 6.96-1.64 13.92-0.1599 20.85-7.3301-1.26-13.97 2.7-21.13 3.36-6-1.62-11.15-7.29-10.08-13.8 1.0601-1.84 2.26-3.71 4.13-4.84 2.4601-1.79 5.6901-0.83 8.53-0.9-1.0698-3.94-1.0299-8.56 1.8801-11.72z" fill="#E1E1E1"/>
	<path d="m1680.2 647.18c5.11-4.44 12.49-4.78 18.83-3.37 6.6801 1.69 10.65 7.94 13.17 13.91 3.38 8.35 7.52 16.91 14.82 22.55-7.35 2.94-13.39 8.28-18.34 14.34-4.02 4.94-8.62 10.09-15.04 11.69-9.85 1.76-21.96-3.9-23.79-14.46-1.3101-8.71 6.2-16.32 14.33-17.94-3.02-2.7-6.3-5.36-7.8-9.2401-2.5299-5.8399-1.2799-13.41 3.82-17.48z" fill="#E1E1E1"/>
	<path d="m1117.5 646.33c3.98-3.82 10.88-1.69 12.98 3.07 1.27 6-1.89 11.89-0.97 17.97-5.24-0.77-10.33 0.95-15.51 1.15-3.8 0.12-5.86-3.53-7.63-6.29 0.13-2.61 0.42-5.53 2.62-7.29 2.22-1.42 4.9301-1.09 7.4-0.61-0.12-2.72-0.03-5.49 1.11-8z" fill="#E1E1E1"/>
	<path d="m1135.1 667.03c-1.5499-7.63 4.35-17.77 12.99-16.85 4.91 0.38 7.75 4.72 10.69 8.09 2.51-4.64 7.46-8.85 13.07-7.85 10.12 1.92 13.8 16.75 6.02 23.4-6.39 5.35-14.8 8.74-18.97 16.43-3.23-3.5-6.17-7.39-10.35-9.83-5.43-3.29-11.84-6.69-13.45-13.39z" fill="#E1E1E1"/>
	<path d="m1231.7 670.23c2.3201-6.29 8.26-11.85 15.26-11.62 7.22 0.56 12.35 6.8 14.52 13.27 3.5-4.01 7.78-8.21 13.43-8.47 5.4501-0.71 10.89 2.46 13.43 7.25 2.73 4.6 2.86 10.27 1.74 15.37-1.5599 6.05-7.1 10.05-12.59 12.36-8.0701 3.38-16.03 7.66-21.76 14.44-2.24-4.96-5.38-9.5-9.35-13.22-4.99-5.02-11.77-8.63-14.7-15.39-2.2099-4.3901-1.52-9.5101 0.0201-13.99z" fill="#E1E1E1"/>
	<path d="m1379.6 659.8c6.65-1.76 13.95 1.13 18.26 6.32 3.53 4.45 3.1801 10.47 2.6 15.78-1.13 7.78-2.2 16.09 0.8201 23.59-3.77-0.21-7.55-0.43-11.3-0.04-4.86 0.5-9.39 2.45-14.04 3.78-4.6899 1.29-9.9299 1.67-14.22-1.03-5.0699-3.41-9.28-8.93-9.49-15.23-0.1899-4.55 2.84-8.4 6.1901-11.13 4.2699-2.19 9.1699-1.66 13.77-1.2-0.98-3.07-2.09-6.25-1.5499-9.52 0.4798-5.0801 4.1798-9.6301 8.9598-11.32z" fill="#E1E1E1"/>
	<path d="m1112.1 676.77c6.27-5.28 17.11-5 21.85 2.17 3.3201 4.28 2.74 9.91 2.26 14.96 6.0601-2.47 13.65-2.44 18.65 2.2599 4.09 3.59 5.74 9.56 3.99 14.74-2.1 6.7-7.33 13.19-14.73 13.99-5.46 1.13-10.81-0.82-16.21-1.27-5.9401-0.46-11.85 0.51-17.7 1.36 0.14-4.53 0.11-9.11-0.89-13.56-1.58-7.46-5.85-14.49-5.02-22.33 0.5801-5.1 3.8801-9.25 7.8001-12.32z" fill="#E1E1E1"/>
	<path d="m1175.8 688.22c-3.33-6.04 3.11-14.78 9.92-12.75 3.0399 1.05 5.08 4.13 5.23 7.3101 2.95-1.57 6.2999-4.2 9.77-2.33 7.22 2.82 5.25 14.74-1.78 16.53-4.9301 1.4-9.98 2.7-14.1 5.92-1.02-6.0101-6.31-9.5901-9.04-14.68z" fill="#E1E1E1"/>
	<path d="m1300.7 700.51c-5.6799-6.99-2.7-19.64 6.16-22.39 6.1699-1.82 11.59 3.15 14.17 8.27 1.92-3.38 4.52-6.67 8.38-7.89 4.8501-1.9 10.34 0.99 12.79 5.3 2.39 3.59 1.92 8.18 1.53 12.25-1.47 4.35-5.5 7.12-9.21 9.48-5.26 3.2-10.22 7.16-13.46 12.48-1.52-2.39-3.23-4.66-5.3199-6.57-4.5599-4.27-10.61-6.5-15.04-10.93z" fill="#E1E1E1"/>
	<path d="m1407.3 685.35c2.1801-1.7 5.02-1.88 7.67-2.23 2.1 1.4 4.52 2.8 5.45 5.31 0.9 2.44 0.2101 5.05-0.38 7.48 3.3201-0.41 7.2201-0.42 9.4701 2.53 6.2 6.54-3.2201 17.53-10.92 14.64-4.88-2.12-10.21-2.89-15.5-2.4 1.21-4.5 1.4401-9.23 0.0601-13.71-1.3701-4.19 0.3098-9.32 4.1498-11.62z" fill="#E1E1E1"/>
	<path d="m1712.8 703.63c5.6801-4.26 12.27-7.78 19.55-7.89 9.11 1.38 18.07 7.31 21.14 16.28 2.42 6.62-0.46 14.4-5.97 18.55-4.12 3.31-9.42 4.44-14.59 4.31 1.3201 2.31 2.8201 4.52 4.0801 6.88 1.98 3.73 2.0699 8.15 1.59 12.26-0.92 5.91-5.5599 10.71-10.99 12.87-7.39 2.12-15.53 0.65-21.94-3.52-5.99-4.57-8.34-12.19-9.1299-19.38-1.1801-10.25-3.8501-20.59-9.7101-29.22 9.6002-0.78 18.32-5.56 25.97-11.14z" fill="#E1E1E1"/>
	<path d="m1268.6 706.71c5.76-3.31 12.98-6.16 19.48-3.2401 6.48 1.9901 11.31 8.63 10.75 15.47 0.3201 4.58-1.58 8.83-3.78 12.71 6.14-0.47 12.82 0.42 17.52 4.77 5.5801 4.72 7.1801 13.37 3.6801 19.79-4.14 7.97-12.91 14.49-22.25 13.06-8.54-1.7-15.81-6.9-24.18-9.12-4.7999-1.72-9.9099-1.85-14.91-2.44 5.11-10.12 4.5099-21.7 4.37-32.69-0.2501-7.1999 3.0599-14.51 9.3199-18.31z" fill="#E1E1E1"/>
	<path d="m1325.5 721.48c4.1001-4.36 11.27-5.45 16.36-2.19 4.39 2.43 6.42 7.3 7.87 11.85 3.54-3.63 7.91-7.22 13.3-6.93 6.74-0.38 12.67 5.42 13.53 11.91 0.52 4.49 0.25 9.38-2.2001 13.33-2.8999 4.7-8.1799 7.04-13.22 8.7-7.41 2.39-14.8 5.74-20.23 11.49-1.9-5.5-4.9399-10.6-9.01-14.75-6.01-5.91-13.63-12.5-12.46-21.88 1.42-4.11 2.7201-8.52 6.0601-11.53z" fill="#E1E1E1"/>
	<path d="m1202.4 723.43c4.51-5.07 13.23-5.79 18.22-1.05 3.39 2.64 4.8 6.83 6 10.8 1.9-1.85 3.9301-3.56 5.92-5.31 5.15-2.18 11.53-2.22 15.9 1.66 6.5 5.84 6.33 16.52 1.49 23.34-3.6001 4.27-9.14 6.02-14.27 7.68-6.72 2.08-13.2 5.28-18.3 10.19-2.02-4.23-3.76-8.68-6.88-12.25-4.89-5.8-11.57-10.68-13.67-18.31-1.1901-6.01 1.4999-12.4 5.5899-16.75z" fill="#E1E1E1"/>
	<path d="m1475.6 727.58c7.7999-4.71 18.11-4.26 25.94 0.16 7.63 3.99 13.21 11.06 16.86 18.73 2.91 5.8 2.8101 12.58 1.8 18.84-2.85 12.15-10.95 22.06-15.4 33.56-3.47 8.94-6.29 18.33-6.33 27.99-4.0901-2.86-8.7401-4.74-13.46-6.25-10.64-3.47-21.95-4.16-33.06-4.13-7.8101-0.4-15.89-1.47-22.73-5.52-8.8401-5.02-13.53-14.78-16.02-24.24-1.5701-7.31-1.01-15.33 2.77-21.91 3.23-6.18 9.2899-10.67 16.04-12.28 9.39-2.59 19.51 0.5699 27.17 6.21 0.53-0.07 1.59-0.2 2.12-0.27-0.8201-7.84 0.51-15.91 4.98-22.52 2.6301-3.2399 5.5201-6.4599 9.3202-8.3699z" fill="#E1E1E1"/>
	<path d="m1121.4 742.28c2.33-8.54 11.38-12.93 19.61-13.54 6.74 0.36 12.31 4.76 16.61 9.64 5.98 6.71 13 12.64 21.36 16.14-5.49 4.65-9.17 11.05-11.7 17.7-2.38 6.8-5.02 13.93-10.89 18.55-6.88 3.42-15.43 4.04-22.22 0.09-3.6299-2.51-7.09-6.2-7.0099-10.9-1-7 3.1499-13.59 8.8899-17.25-5.5-1-9.7599-4.61-13.3-8.71-1.22-3.74-2.9-7.81-1.35-11.72z" fill="#E1E1E1"/>
	<path d="m1648.7 757.81c3.02-9.43 12.01-16.11 21.54-17.89 7.65-1.52 16.17 2.22 19.79 9.24 3.8401 6.7 2.76 15.01-0.35 21.78 3.91-0.58 7.85-1.47 11.85-1.09 5.25 1.05 10.49 3.5 13.66 8 5.21 6.64 4.46 16.52-0.13 23.3-3.4399 4.97-7.95 9.67-13.88 11.47-10.28 2.84-20.15-2.4-29.99-4.54-7.46-1.42-15.31-2.6-22.75-0.53 1.3301-4.76 2.5701-9.59 2.4-14.58 0.6001-11.82-4.5399-23.33-2.1399-35.16z" fill="#E1E1E1"/>
	<path d="m1387.2 746.17c2.58-2.14 6.0601-2.04 9.23-2.02 4.73 0.86 8.88 3.88 11.74 7.69 3.74 4.84 2.6901 11.5 1.14 16.98-2.26 7.31-3.91 15.12-2.22 22.75-7.77-2.47-16.15-1.51-23.98 0.18-5.0601 0.82-10.89 0.6-14.94-2.92-4.1499-3.74-7.48-9.07-6.95-14.86-0.0701-4.84 3.4-9.28 7.8099-11 4.3301-1.48 9.04-0.72 13.26 0.77-2.0498-6.14-0.7898-13.84 4.9102-17.57z" fill="#E1E1E1"/>
	<path d="m1188.7 754.7c2.4401-1.91 5.54-3.81 8.78-2.93 5.0601 1.37 10.15 4.78 11.72 10.02 1.1101 4.63-0.5699 9.27-1.2799 13.83-0.66 4.39-0.51 8.91 0.47 13.25-5.55-0.67-11.16-0.1-16.48 1.59-4.98 1.52-11.13 2.59-15.52-0.96-3.29-2.9-6.26-6.92-6.08-11.51-0.1101-4.53 3.35-8.8 7.7699-9.73 2.78-0.97 5.6901-0.26 8.4701 0.35-1.7701-4.58-1.6301-10.38 2.1499-13.91z" fill="#E1E1E1"/>
	<path d="m1224.6 777.86c1.75-6.7 7.27-12.51 14.41-13.07 7.27-0.12 13.39 5.26 16.12 11.72 2.48-4.1 5.4401-8.35 10.11-10.11 6.48-2.87 14.86-0.2401 18.33 5.98 3.52 5.93 4.85 13.94 0.99 20.02-3.01 5.41-8.6901 8.3199-13.68 11.55-6.26 3.85-11.66 9.07-15.68 15.22-2.0601-3.7-4.7001-7.07-8.02-9.7-6.5-5.75-15.47-8.52-20.52-15.89-3.25-4.55-3.4499-10.48-2.0601-15.72z" fill="#E1E1E1"/>
	<path d="m1576.4 773.35c6.1599-2.7 13.62-2.5 19.41 1.06 7.9501 4.39 12 13.44 13.14 22.11 1.42 7.03-1.27 14.33-5.72 19.76-6.0601 7.37-14.74 11.84-21.42 18.56-5.46 5.39-10.82 11.19-13.9 18.32-0.2401 0.15-0.7401 0.44-0.9901 0.59-4.5-6.95-11.23-12.13-18.23-16.37-9.33-5.54-20.57-8.71-27.6-17.47-3.27-3.91-5.02-8.86-5.1899-13.93-1.29-10.66 2.89-22.64 12.63-28.08 3.59-1.59 7.5-2.8 11.5-2.35 8.7999 0.65 16.2 6.89 20.54 14.27 0.36-0.02 1.0901-0.05 1.4601-0.06 2.17-7.1799 7.56-13.3 14.37-16.41z" fill="#E1E1E1"/>
	<path d="m1294.3 776.39c3.3799 3.09 7.7999 4.65 12.09 6.04 7.78 2.49 16.14 1.59 23.96 3.97 8.84 3.55 13.68 13.4 13.06 22.6-0.54 5.55-3.7101 11.09-9.03 13.27-4.9501 2.59-10.9 1.73-15.71-0.74-1.66-1.09-3.25-2.29-4.8301-3.45-0.13 5.72-1.61 11.81-5.99 15.8-4.1 3.63-10.15 5.67-15.43 3.51-7.04-2.22-11.68-8.76-13.91-15.48-2.11-6.84 1.36-13.77 5.1-19.34 5.4198-7.8 9.4698-16.7 10.69-26.18z" fill="#E1E1E1"/>
	<path d="m1154.8 799.74c2.52-4.13 7.2401-7.17 12.22-6.58 5.37 0.32 9.5399 4.4301 12.1 8.86 0.85 1.87 1.88-0.88 2.53-1.48 3.3199-5.62 10.86-9.09 17.06-6.17 7.37 3.2 10.1 12.47 8.49 19.84-1.9199 6.59-8.23 10.13-13.69 13.46-5.38 3.32-9.8201 7.93-13.48 13.04-3.2201-4.02-6.53-8.09-10.92-10.89-3.08-2.12-6.25-4.11-9.5-5.94-3.03-2.75-6.16-5.82-7.15-9.93-0.98-4.82-0.11-9.96 2.3399-14.21z" fill="#E1E1E1"/>
	<path d="m1385.7 798.87c7.14-1.97 15.26 0.72 19.64 6.74 3.9 4.92 4.76 11.35 4.4401 17.44l2-1.08c3.71-2.22 7.7899-3.98 12.16-4.33 8.65-0.9 17.61 4.86 19.96 13.33 2.2699 8.82-0.41 18.81-6.7101 25.38-6.1799 6.25-15.44 6.94-23.72 7.4301-5.73 0.29-11.47 0.91-16.95 2.65-3.7201 1.21-7.75 2.04-10.76 4.68-0.49 0.13-1.4701 0.4-1.9601 0.53 0.12-6.66-1.87-13.11-4.49-19.15-3.97-8.76-10.57-16.44-12.27-26.13-1.2699-6.91 2.0701-13.57 6.0701-18.98 3.39-3.8201 7.5499-7.2001 12.59-8.5101z" fill="#E1E1E1"/>
	<path d="m1621.6 818.68c1.24-2.67 3.4399-5.09 6.51-5.51 4.5299-0.75 8.3199 2.95 10.25 6.68 0.8099 3.61-0.41 7.17-2.2101 10.27-2.12 3.65-3.39 7.71-3.88 11.9-6.76-4.13-15.68-0.41-21.89-5.61-2.2699-3.7599-4-9.12-0.6799-12.8 3.0699-3.45 8.22-2.67 11.79-0.45-0.0499-1.5 0.0601-3 0.1101-4.48z" fill="#E1E1E1"/>
	<path d="m1226.6 832.05c2.4299-5.57 5.87-11.61 12.31-13.05 8.74-2.92 16.92 5.93 16.53 14.39 2.99-2.39 6.58-4.32 10.53-4.1 8.3099-0.75 15.53 8.73 12.51 16.51-1.5701 4.66-3.41 10.37-8.67 11.93-8.4 2.77-17.69 2.72-25.61 7.02-1.08 0.55-2.15 1.14-3.1801 1.75-0.4898-13.2-14.93-21.06-14.42-34.45z" fill="#E1E1E1"/>
	<path d="m1199.8 829.71c3.58-1.87 6.4399-4.78 9.2999-7.57 2.2201 5.02 6.4301 8.74 10.8 11.89 3.27 2.48 6.6901 5.72 6.92 10.1 0.26 4.32-1.12 9.22-4.8201 11.81-3.2999 2.61-8.52 2.51-11.62-0.36-1.9299-1.66-3.09-3.96-4.1799-6.19-2.3 3.36-5.7301 6.65-10.14 6.23-8.3201-0.03-12.51-11.27-8.11-17.65 2.65-4.28 7.6701-5.91 11.85-8.26z" fill="#E1E1E1"/>
	<path d="m1289.4 851.01c0.4199-6.77 8.1-10.67 14.22-9.58 5.58 1.73 8.49 7.16 11.1 11.94 2.03 3.61 5.02 6.56 8.29 9.07-3.67 2.4-7.2001 5.17-9.47 8.99-2.79 4.11-6.04 9.32-11.54 9.62-4.01 0.33-8.4401-0.68-11.29-3.67-1.73-2.25-2.9299-5.14-2.27-8 1.0901-3.7 4-6.79 7.6901-7.98-3.4501-2.44-6.8601-5.83-6.7301-10.39z" fill="#E1E1E1"/>
	<path d="m1579.8 860.16c-3.3201-8.42 5.09-17.64 13.63-17.1 8.5199 1.91 16.04 7.79 25.18 6.87-3.35 6.93-2.53 14.67-2.59 22.09 0.01 8.11-8.42 13.58-15.92 12.99-4.75-0.58-8.5599-4.64-8.98-9.38-0.11-3.18 0.91-6.23 2.54-8.92-5.3599 0.74-11.68-1.15-13.86-6.55z" fill="#E1E1E1"/>
	<path d="m1491 852.49c12.8-5.2 26.86-10.83 40.79-6.56 4.0701 1.24 7.5601 3.72 10.84 6.37 8.1799 6.04 14.51 14.9 16.62 24.94 0.9099 6.25 0.61 12.92-2.27 18.66-4.2 8.98-13.36 14.84-22.92 16.62-5.97 0.06-12.14 0.81-17.9-1.17 0.89 4.4 3.4701 8.22 4.2401 12.66 2.3199 9.25 0.5399 19.63-5.38 27.21-3.9401 5.76-10.38 9.3701-17.03 11.04-5.1901 0.79-10.48 0.44-15.66-0.06-6.1-2.47-12.38-4.83-17.5-9.09-7.23-5.12-11.7-13.46-13.04-22.12-1.6599-13.01 1.38-25.97 0.88-39 0.3501-11.16-2.0299-22.14-5.5499-32.65 4.87 1.3799 9.9299 1.23 14.89 0.47 10.02-0.65 19.73-3.56 28.99-7.32z" fill="#E1E1E1"/>
	<path d="m1342.9 859.01c2.4199-4.9 7.4099-9.1 13.13-8.79 7.23-0.56 13.69 4.3701 17.36 10.24 3.9399 5.96 2.64 13.77 0.0499 20.01-3.5499 8.54-6.47 17.68-5.71 27.04-8.16-3.35-17.16-3.69-25.79-2.39-6.09 0.93-12.44 0.05-17.82-3.01-1.14-1.25-2.3201-2.44-3.5-3.61-4.22-5.58-6.88-13.15-4.1801-19.96 1.48-4.21 5.12-7.33 9.28-8.73 5.36-1.41 11.05-0.29 15.86 2.33-0.3099-4.39-0.7599-9.08 1.3201-13.13z" fill="#E1E1E1"/>
	<path d="m1261.9 873.56c0.5701-5.88 5.6801-12.27 12.11-11.09 7.4099 1.01 11.76 9.46 10.33 16.37-1.34 4.9-5.5601 8.12-8.6901 11.86-2.9099 3.31-5.1499 7.18-6.5099 11.38-2.8401-1.86-5.4601-4.11-8.62-5.39-4.7101-2.15-10.09-2.79-14.42-5.73-4.7001-3.27-5.4501-9.72-4.47-14.94 0.7799-3.87 4.24-6.16 7.0499-8.54 5.1701-0.1801 9.9001 2.1699 13.22 6.0799z" fill="#E1E1E1"/>
	<path d="m1406.8 905.99c3.76-3.69 9.0599-5.7 14.34-5.22 6.73 0.85 12.98 4.6 17.27 9.82 4.5 5.7599 4.53 13.61 3.24 20.48-1.9 10.39-3.15 21.52 0.6899 31.63-10.16-2.61-20.66 0.25-30.32 3.5-7.1901 2.45-15.51 3.52-22.34-0.55-4.4801-3.76-9.0601-7.9-10.85-13.67-3.3099-7.49 0.02-16.78 6.8201-21.08 5.76-3.25 12.68-3.13 18.89-1.34-3.69-7.46-3.4-17.15 2.26-23.57z" fill="#E1E1E1"/>
	<path d="m1359.1 911.27c4.62-1.78 10.08-0.38 13.55 3.09 5.23 4.89 6.65 12.98 4.62 19.67-2.45 6.3-8.67 9.84-14.11 13.24-5.91 3.58-10.66 8.69-14.86 14.1-0.39-0.57-1.16-1.72-1.55-2.29-3.08-4.76-7.7-8.26-12.42-11.26-5.27-3.23-11.14-6.38-14.06-12.11-2.67-4.26-2.02-9.61-0.65-14.18 2.09-6.09 7.59-11.59 14.42-11.23 6.5599 0.11 11.51 5.29 14.33 10.77 2.56-4.16 5.79-8.41 10.73-9.8z" fill="#E1E1E1"/>
	<path d="m1399.3 995.6c4.48-4.92 11.76-8.04 18.24-5.3 5.27 1.73 8.96 6.09 11.59 10.78 0.8101 1.96 1.89-0.79 2.46-1.46 3.01-5.7 9.05-9.61 15.47-10.07 7.0299-0.11 13.51 4.73 16.05 11.18 2.51 5.54 3.65 12.32 0.4501 17.84-2.77 6.36-8.91 10.08-14.56 13.58-7.4 4.4399-14.09 10.24-18.79 17.53-0.13-0.02-0.3899-0.05-0.5199-0.0701-3.4-4.89-7.37-9.39-12.25-12.85-7.1101-5.1801-16.19-8.58-20.64-16.65-2.51-3.94-1.92-8.81-1.79-13.24 0.1199-4.1499 2.4599-7.6999 4.2899-11.27z" fill="#E1E1E1"/>
	<path d="m1256 499.02c0.9399-4.03 6.84-6.03 9.61-2.61 2.36 2.01 0.66 5.19-0.24 7.51 0.4399 0.09 1.3 0.26 1.74 0.35 0.62 0.36 1.85 1.07 2.47 1.43 0.02 1.84 0.79 3.91-0.2899 5.58-2.12 2.31-6.2101 3.61-8.7201 1.19-2.2899-1.86-4.83-3.39-7.5199-4.57 1.2999-2.85 2.2899-5.82 2.9499-8.88z" fill="#E1E1E3"/>
	<path d="m1373.5 632.97c0.6801-4.25 3.63-8.54 8.3401-8.54 6.5299 0.72 10.82 9.72 6.5699 15.01-3.3 4.29-6.52 8.71-8.12 13.96-3.85-6.39-13.22-3.45-18.06-8.59-4.7799-4.17-3.1799-14.28 3.74-15.08 2.9801-0.68 5.4001 1.48 7.5301 3.24z" fill="#E1E1E3"/>
	<path d="m1160.6 694.89c0.88-4.04 5.8201-7.99 9.7301-5.15 2.47 1.36 2.46 4.48 2.3199 6.95 2.49-0.04 5.62 0.03 6.98 2.56 2.0601 2.52 0.85 6.04-1.5 7.87-1.75 2.22-4.85 1.4-7.1799 0.83-2.7201-0.88-5.5701-0.79-8.3601-0.76 0.21-4.2-0.68-8.34-1.99-12.3z" fill="#E1E1E3"/>
	<path d="m1276.6 897.27c1.01 0.01 2.04 0.04 3.08 0.07 0.66 1.05 1.3201 2.12 2.01 3.2 2.03-1.17 4.2301-0.63 6.29 0.18-0.42 1.69 0.1801 3.85-1.03 5.27-2.52 1.55-5.4099 2.41-8.22 3.24-1.48-2.49-3.37-4.72-4.61-7.32-0.04-1.89 1.51-3.2 2.48-4.64z" fill="#E1E1E3"/>
	<path d="m1240.4 497.71c2.09-1.95 4.9301-1.85 6.85 0.3 0.9501-0.64 1.91-1.29 2.9401-1.82 1.59-0.03 2.87 1.14 4.24 1.82 1.04 5.08-4.55 6.74-7.25 9.9-1.73-1.71-3.66-3.15-5.6-4.57-2.0101-1.16-1.0801-3.78-1.1801-5.63z" fill="#E0E2E3"/>
	<path d="m1222.3 502.31c5.3199 0.78 10.46-1.42 15.78-0.92 3.8101 1.98 4.8101 6.28 5.5701 10.15 3.5699-0.15 6.92-1.52 10.44-2 1.6001 0.86 3.0701 2.05 4.14 3.56 0.48 1.66 0.12 3.42 0.1901 5.14-1.86 0.76-3.8201 1.15-5.79 1.29 0.17 2.09-0.23 4.14-1.16 6.02-3.26 0.63-7.3999 0-8.47-3.68-0.38-3.58 0.8201-7.21 0.25-10.82-1.37 1.14-2.62 2.41-4.14 3.34-1.95 0.38-3.85-0.25-5.72-0.61 0.35 1.1 0.6899 2.21 1.08 3.3199-1 2.14-1.72 5.39-4.5599 5.62-3.34 0.86-6.0701-1.5-8.4-3.48-1.1201-5.6999 1.5499-11.23 0.7899-16.93z" fill="#E0E2E3"/>
	<path d="m1214.3 613.99c-0.5299-3.04 1.53-6.42 4.64-6.93 2.42-0.3 3.9 1.82 5.4301 3.31 1.6799-1.38 3.27-3.68 5.77-3.18 2.12 0.21 3.12 2.41 4.5699 3.72-0.42 2.06 0.3101 4.72-1.6801 6.14-2.7699 2.39-5.8999 4.35-8.3899 7.05-1.62-1.33-3.2401-2.65-4.9301-3.87-2.0499-1.75-5.4199-3.12-5.4099-6.24z" fill="#E0E2E3"/>
	<path d="m1217.7 870.08c-0.6699-3.16 1.61-5.93 4.1001-7.52 2.35-0.49 3.6899 2.14 5.34 3.39 1.59-1.27 3.23-2.5 4.89-3.7 2.39 1.64 5.09 3.72 5.36 6.87-2.03 4.55-7.4 5.9-10.21 9.84-2.23-3.95-7.43-4.8-9.48-8.88z" fill="#E0E2E3"/>
	<path d="m1278.5 501.17c0.7899-1.93 1.08-4.73 3.5599-5.23 3.48-1.4 6.8101 2.69 6.52 5.95-1 3.37-2.97 6.4-3.58 9.91-3.4-0.96-6.9501-1.05-10.39-1.64-3.12-0.86-3.41-4.53-3.63-7.19 1.3099-1.41 2.89-2.5 4.75-3.06 0.9102 0.42 1.8301 0.84 2.7701 1.26z" fill="#E0E2E2"/>
	<path d="m1731.8 508c2.14-1.26 5.14-2.13 7.11-0.03 2.1801 1.48 1.3501 4.2 1.3 6.41 2.09 0.27 4.48 0.71 5.67 2.71 2.61 4.33-2.9701 10.22-7.4801 8.22-2.97-1.12-5.99-2.12-9.1799-2.2 0.88-4.64-1.2001-9.8 1.3099-14.04 0.3801-0.39 0.8001-0.74 1.2701-1.07z" fill="#E0E2E2"/>
	<path d="m1223.7 571.74c3.04-2.99 7.2401-1.08 9.2101 2.09 1.6799-1.6 3.34-4.05 6.03-3.56 4.8099 0.53 6.97 7.79 3.1599 10.84-3.12 2.62-6.84 4.59-9.14 8.08-2.4399-3.57-6.2799-5.63-9.59-8.23-2.7599-2.61-1.9298-6.6 0.33-9.22z" fill="#E0E2E2"/>
	<path d="m1215.8 583.82c1.4401-1.85 3.89-1.63 5.99-1.83 1.9 1.61 5.1901 3.01 4.65 6.02-0.7899 1.97-2.5599 3.31-3.97 4.82 1.4301 1.46 3.5699 2.86 3.24 5.24 0.04 2.4-2.27 3.75-3.6899 5.34-1.8-0.0099-3.5901 0.07-5.3601 0.1-2.0599-2.31-3.74-4.9-5.46-7.46-1.0499-1.07-2.09-2.11-3.1799-3.1 3.0299-2.66 5.0599-6.2 7.7799-9.13z" fill="#E0E2E2"/>
	<path d="m1193.9 601.02c0.9-0.88 1.84-1.74 2.9299-2.41 2.8101-0.99 4.4 1.95 6.2101 3.51 1.22-1.28 2.5399-2.46 3.7799-3.73 0.75 0.07 2.25 0.21 3 0.29 1.2001 1.35 2.4701 2.66 3.7001 4.02-0.05 1.51-0.0701 3.03-0.0801 4.55-3.33 3.11-7.4199 5.31-10.37 8.83-3.0699-3.86-7.9099-5.75-10.71-9.85 0.4801-1.75 0.9601-3.49 1.5401-5.21z" fill="#E0E2E2"/>
	<path d="m1328.7 517.23c1.27-1.29 1.9199-4.06 4.13-3.79 2.3099-0.17 3.51 1.99 4.6799 3.61 0.6801 4.55-4.1599 7.09-5.71 10.94-2.83-1.6-6.04-2.35-8.88-3.86-2.88-1.93-1.84-5.86 0.03-8.11 2.0401-0.74 3.91 0.43 5.7501 1.21z" fill="#E0E1E3"/>
	<path d="m1348.5 567.47c2.73-2.34 6.42-3.1899 9.27-5.43 2.01 3.69 6.3201 5.66 7.48 9.87-1.0599 2.44-2.4399 4.8701-5.21 5.58-1.96-0.82-3.4301-2.32-4.5701-4.04-1.2999 1.09-2.6599 2.43-4.5099 2-3.33-0.49-5.31-5.72-2.46-7.98z" fill="#E0E1E3"/>
	<path d="m1206.7 686.96c-0.66-3.89 1.49-7.89 5.2599-9.21 2.67 0.06 4.3601 2.24 6.03 4.03 1.7001-1.66 3.36-4.16 6.12-3.72 2.8 0.49 4.4401 3.36 5.24 5.86 0.64 2.61-1.6 4.56-3.3199 6.13-2.9 2.03-5.88 4.01-8.0601 6.85-3-4.16-8.04-6.01-11.27-9.94z" fill="#E0E1E3"/>
	<path d="m1336.6 525.56c0.87-3.35 4.62-3.96 7.55-4.28 3.28 1.84 4.09 5.33 3.0601 8.79 1.22 0.21 2.46 0.42 3.72 0.62 1.5499 1.88 3.5399 4.54 1.71 6.95-1.5699 2.23-4.71 4.75-7.51 3.25-3.14-1.52-6.38-2.82-9.8199-3.4 1.1099-3.9 0.5799-8 1.2898-11.93z" fill="#E1E1E2"/>
	<path d="m1303.7 529.79c5.75-2.12 12.11-1.34 17.85-3.63 0.7201 5.51 4.4401 9.8701 6.04 15.05 0.41 4.69-3.26 8.91-7.51 10.46-1.36-0.42-2.7-0.84-4.03-1.26-2.37-1.73-3.36-4.47-3.98-7.21-2.91 0.88-6.34 1.99-8.9399-0.23-4.4601-3.18-3.2202-9.96 0.5699-13.18z" fill="#E1E1E2"/>
	<path d="m1329.2 552.97c-4.13-6.64 5.1-16.77 11.81-11.98 2.6799 1.79 3.45 5.17 3.11 8.22 3.1699-2.06 7.6-2.71 10.64-0.02 4.2899 4.51 1.5 13.53-4.75 14.61-5.2301 0.98-11.03 0-15.64 3.21-0.4201-5.11-2.8301-9.61-5.1701-14.04z" fill="#E1E1E2"/>
	<path d="m1364 551.21c2.51-1.29 5.38-1.21 7.61 0.65 0.4601 0.68 1.38 2.05 1.8401 2.74 1.85-1.84 3.64-4.61 6.63-4.27 5.4399 0.32 8.2999 8.33 4.23 11.97-3.4 3.03-7.8301 4.95-10.28 8.96-3-3.56-7.21-5.66-10.7-8.62-3.4301-3.03-2.0601-8.41 0.6699-11.43z" fill="#E1E1E2"/>
	<path d="m1245 580.83c1.4601-2.65 3.02-5.25 3.9401-8.15 2.5699 1.26 5.4299 1.64 8.23 2.17 3.71 0.7401 5.1899 6.97 1.6799 8.87-1.71 0.33-3.4399-0.11-5.11-0.25-0.89 1.55-1.52 4.03-3.71 4.07-3.4 0.72-6.8101-3.59-5.03-6.71z" fill="#E1E1E2"/>
	<path d="m1257.6 591.41c3.8101 0.42 7.67 0.22 11.43-0.6 6.33-2.05 12.54 5.98 9.5399 11.74-2.7 1.81-5.76 2.75-8.99 1.84 0.79 3.66-0.7799 7.75-4.48 9.06-3.9 1.09-6.95-2.05-9.4399-4.53-0.5901-5.98 2.8099-11.5 1.9399-17.51z" fill="#E1E1E2"/>
	<path d="m1150.8 603.78c3.9299-1.69 8.36 1.2599 9.53 5.11 0.35 3.56-2.8 6.66-6.29 6.73 1.53 3.34 1.17 7.92-2.5 9.69-3.5 0.24-8.24-1.36-8.79-5.34-0.5599-3.84-0.96-7.7599-2.64-11.32 4.09-0.2801 7.21-3.0701 10.69-4.8701z" fill="#E1E1E2"/>
	<path d="m1244.9 614.03c0.8201-3.03 5.39-5.35 7.72-2.54 1.65 1.28 1.01 3.51 0.78 5.27 1.77 0.51 4.17 0.63 5 2.64 1.3201 3.58-3.01 7.46-6.4399 6.0099-2.4401-0.91-4.9301-1.78-7.54-1.9 0.5299-3.1499 0.2599-6.3299 0.4799-9.4799z" fill="#E1E1E2"/>
	<path d="m1120.6 615.74c3.29-1.77 7.96-2.18 10.47 1.11 2.8101 2.72 2.1 6.76 0.6901 9.9901 1.1599-0.08 2.33-0.13 3.5199-0.16 3.0901 1.62 6.3301 4.52 6.14 8.3-0.9399 4.16-4.7 7.24-8.7 8.3-3.04 0.28-5.7-1.54-8.4301-2.5601-3.23-1.5099-6.74-2.22-10.27-2.43 2.36-5.09 1.74-10.82 1.74-16.25 1.28-2.3 2.34-5.06 4.84-6.3z" fill="#E1E1E2"/>
	<path d="m1156.2 630.56c0.03-4.02 2.16-8.84 6.74-9.05 3.66-0.51 6.26 2.41 8.3501 4.95 1.1699 2.53 1.4399 5.44 0.02 7.94-2.2001 4.27-4.1801 8.69-4.92 13.48-4.59-1.82-9.54-2.14-14.41-2.27-6.62-0.19-10.53-8.99-6.71-14.25 2.8299-3.1 7.4999-2.45 10.93-0.8z" fill="#E1E1E2"/>
	<path d="m1234.9 700.86c2.58-2.71 6.4501-1.28 9.7001-1.25 1.6 2.03 3.7699 4 3.83 6.81 0.42 4.94-0.14 10.12 2.22 14.69-6.13 0.05-11.36 3.55-17.08 5.25-2.4601-1.4-5.27-2.54-7-4.87-1.63-2.52-2.0801-6.42 0.4-8.56 1.7899-1.9 4.58-1.88 6.97-2.47-0.5501-3.12-1.9101-7.24 0.9599-9.6z" fill="#E1E1E2"/>
	<path d="m1377.3 723.67c-3.66-3.43-0.8101-10.05 3.7-11.01 2.8099-0.56 4.47 2.22 6.22 3.88 1.4301-1.4 2.76-3.03 4.66-3.83 2.96-0.76 4.79 2.07 6.46 3.98-0.03 1.9 0 3.81 0.0701 5.73-3.0901 3.41-7.79 5-10.32 8.94-0.27 0.13-0.7999 0.4-1.0599 0.53-2.5602-3.53-6.6702-5.27-9.7301-8.22z" fill="#E1E1E2"/>
	<path d="m1426.8 718.87c1.73-0.56 3.51-0.88 5.3099-1.3 2.26 0.98 4.66 2.21 5.78 4.57 1.5 2.49 0.34 5.45 0.25 8.14 1.67-0.19 3.34-0.41 5.04-0.66 3 1.35 6.0699 3.7 6.36 7.24-0.12 4.5-3.38 8.53-7.47 10.15-3.41 1.01-6.7201-0.71-10.01-1.31-3.4601-0.96-7.05-1.19-10.6-0.84 1.8201-5.54-0.08-11.27-0.73-16.82 0.0502-3.81 2.2201-8.03 6.0702-9.17z" fill="#E1E1E2"/>
	<path d="m1332.2 835.14c1.9601-1.91 3.8401-4.53 6.8201-4.71 5.45-0.55 9.21 5.83 8.24 10.67-2.78 6.3-10.56 7.71-14.14 13.39-0.25 0.1-0.76 0.3-1.02 0.4-2.24-2.79-4.9099-5.22-8.0499-6.95-3.2201-1.89-6.9-4.74-6.52-8.91-0.5-3.75 2.5599-6.47 5.2-8.58 3.9899-0.98 7.4499 1.44 9.4698 4.69z" fill="#E1E1E2"/>
	<path d="m1379.9 881.85c1.5699-1.67 3.63-3.02 6.04-2.6 3.13-0.1 4.9399 2.79 6.86 4.8 1.63-2.01 3.35-4.56 6.21-4.71 6.98-1.06 11.55 9.42 6.21 13.95-4.12 3.65-9.22 6.11-12.62 10.59-3.63-5.68-11.02-7.27-14.4-13.08-1.47-3.04-0.04-6.38 1.7-8.95z" fill="#E1E1E2"/>
	<path d="m1284.2 887.34c3.74-1.03 7.8101-0.2401 11.45-1.84 0.61 4.08 2.9199 7.6 3.84 11.58-0.74 1.74-1.71 3.39-2.74 4.99-2.7001 1.38-6.2101 0.91-7.36-2.21-0.14-0.66-0.41-1.97-0.55-2.63-1.62 0.07-3.27 0.59-4.84 0.13-1.9401-0.66-2.6-2.76-3.65-4.28 1.0598-1.98 1.3399-5.02 3.8499-5.74z" fill="#E1E1E2"/>
	<path d="m1298.2 901.65c3.45-4.23 11.25-2.76 12.41 2.75 0.3501 4.59-1.86 9.2-0.23 13.77-4.62-0.38-9.0699 0.93-13.43 2.23-1.3401-0.64-2.6801-1.2401-3.99-1.87-0.91-1.54-2.0801-2.98-2.5601-4.71-0.2-1.8 0.66-3.48 1.15-5.15 2.23-0.8 4.5599-1.23 6.95-1.03-0.1299-2-0.2299-4.01-0.2999-5.99z" fill="#E1E1E2"/>
	<path d="m1389.9 981.74c1.13-2.48 2.9601-5.43 6.03-5.47 6.04 0.08 8.88 9.28 4.1 12.86-2.95 2.42-5.4099 5.35-7.1899 8.73-2.6-2.27-5.5601-4.09-8.84-5.14-3.3501-1.0099-6.0801-4.12-6.3101-7.6299 0.8101-3.02 2.78-6.56 6.26-6.84 2.45 0.0499 4.4201 1.6899 5.95 3.4899z" fill="#E1E1E2"/>
	<path d="m1357.9 528.66c1.4-0.89 3.4399-2.34 4.5699-0.1 1.91 3.15-2.5599 4.86-4.1799 6.88-2.26-1.68-4.9301-3.18-5.9-5.99 1.08-0.84 2.25-1.63 3.4-2.42 0.67 0.55 1.37 1.1 2.11 1.63z" fill="#DDE4EB"/>
	<path d="m1677.8 535.04c-1.3401-2.23-1.74-5.05 0.08-7.14 0.39 2.34 0.3001 4.79-0.08 7.14z" fill="#E7F9FF"/>
	<path d="m1360.9 539.68c1.4301-1.3 2.65-3.77 4.9601-3.33 2.9299 0.62 4.6699 4.38 3.5599 7.1-2.0599 2.63-4.84 4.62-6.8199 7.33-2.97-1.8701-6.27-3.28-8.89-5.61-1.9399-3.4 0.14-7.95 4.21-8.12 0.9799 0.88 1.96 1.75 2.9799 2.63z" fill="#E1E2E2"/>
	<path d="m1359.8 955.69c0.77-4.9 8.28-6.84 10.87-2.37 1.5601 2.14 0.26 4.64-0.7 6.71 2.86 0.53 5.91 2.75 5.39 6.0099-0.27 3.3-3.86 4.4-6.42 5.5-4.21-1.55-7.59-4.74-11.95-5.95 1.38-3.1599 2.23-6.5099 2.81-9.8999z" fill="#E1E2E2"/>
	<path d="m1199.5 543.77c-0.48-1.74 0.17-3.22 1.3199-4.48 1.26 0.59 3.3401 0.41 3.9301 1.9901 0.95 2.25 0.5 4.8199 0.8199 7.21-2.45 0.36-4.85 1.64-7.34 1.22-2.16-0.88-2.3-3.09-1.88-5.06 1.0401-0.2901 2.0901-0.5901 3.1501-0.8801z" fill="#DFE4E7"/>
	<path d="m1209.3 553.71c-0.67-3.21-2.4301-7.8 1.6799-9.42 0.5701 0.11 1.72 0.33 2.29 0.44 0.38 1.13 0.79 2.26 1.21 3.4 0.9401 0.16 1.89 0.31 2.86 0.47 0.3 0.61 0.9 1.82 1.1901 2.42-0.3101 0.61-0.92 1.82-1.23 2.43-2.5 1.47-5.3599 0.68-8 0.26z" fill="#E0E4E5"/>
	<path d="m1472.5 560c1.12-2.42 3.88-3.93 6.52-3.88 2.08 0.13 3.14 2.18 4.47 3.52-0.15 1.36-0.27 2.73-0.36 4.11 2.6801 0.42 5.6801 1.58 6.34 4.56 0.28 3.54-3.13 6.76-6.5 7.03-3.7799-1.04-7.35-3.03-11.38-2.77h-0.1l-0.12 0.01c1.98-3.94 0.17-8.45 1.13-12.58z" fill="#E0E2E1"/>
	<path d="m1229.9 601.91c-2.2201-4.23 0.49-9.91 5.0299-11.18 3.0601-0.24 5.17 2.32 7.04 4.35 1.92-2.45 4.62-4.85 8.02-3.71 4.35 1.34 5.08 6.38 4.47 10.29-3.7899 4.16-9.4399 6.21-12.48 11.08-0.8-1.01-1.5599-2.03-2.37-2.99-3.1099-2.77-7.3-4.32-9.7099-7.84z" fill="#E0E2E1"/>
	<path d="m1401.4 663.81c1.42-1.27 2.42-3.51 4.5701-3.58 2.24-0.58 3.6699 1.44 5.14 2.74 1.76-2.47 4.5399-3.09 7.37-2.3 0.46 0.61 1.38 1.83 1.84 2.44-0.0599 1.97-0.11 3.95-0.1801 5.93-3.5399 1.63-6.7899 3.9901-9.0599 7.2-1.98-3.86-6.5-5.11-9.12-8.35-0.2601-1.36-0.45-2.72-0.5601-4.08z" fill="#E0E2E1"/>
	<path d="m1208.4 560.52c0.7999-1.02 1.62-2.03 2.46-3.04 1.87 0.44 3.75 0.81 5.65 1.25 0.1899 1.81 0.4199 3.63 0.61 5.46-1.24 1.05-2.75 1.6-4.3201 1.88-0.8099-2.34-2.5098-4.07-4.3999-5.55z" fill="#DFE1E4"/>
	<path d="m1218.8 562.05c0.4701-2.28 2.9301-1.67 4.64-1.8 0.24 1.11 0.5 2.22 0.77 3.35 1.04 0.4 2.09 0.82 3.15 1.2401-0.17 1.33-0.29 3.12-1.61 3.86-1.79 0.25-3.6-0.01-5.35-0.28-2.6499-0.9501-1.9099-4.2301-1.6-6.3701z" fill="#DFE5E7"/>
	<path d="m1388.9 568.39c0.34-1.3 0.52-2.63 0.87-3.92 1.5699 0.17 3.6899-0.41 4.53 1.45 0.9399 2.25 0.27 4.84 0.5 7.23-2.77 0.04-6.62 2.72-8.52-0.4301-0.23-0.73-0.6801-2.18-0.91-2.91 1.17-0.4699 2.3399-0.9399 3.53-1.4199z" fill="#E0E3E5"/>
	<path d="m1335.3 571.97c-0.02-2.5 2.7-3.77 4.9099-3.48 0.5601 1.19 1.11 2.41 1.7101 3.62 1.1799 0.05 2.37 0.11 3.58 0.17 0.26 0.73 0.79 2.18 1.05 2.9-0.77 1.03-1.54 2.04-2.28 3.08-2.27 0.01-4.52 0.1-6.76 0.26-0.7601-2.18-1.7401-4.3-2.21-6.55z" fill="#E1E4E3"/>
	<path d="m1129.4 599.03c0.7301-2.32 1.78-5.47 4.65-5.72 4.78-0.39 8.35 5.59 5.88 9.65-1.9399 3.1-3.87 6.24-4.71 9.85-3.79-3.23-9.3201-1.98-13.27-4.85-3-2.81-2.33-9.17 1.9301-10.41 1.9599-0.28 3.7299 0.81 5.5199 1.48z" fill="#E1E2E3"/>
	<path d="m1186.8 610.45c2.38-0.53 4.89 1.07 5.08 3.59-0.53 2.63-1.6899 5.08-2.4299 7.65-2.3201-1.31-5.03-0.88-7.52-1.37-1.77-1.26-2.0801-3.65-1.3401-5.56 1.42-0.67 3.02-0.8 4.5701-1.14 0.5498-1.05 1.0699-2.13 1.6399-3.17z" fill="#E2E1E0"/>
	<path d="m1219.6 665.89c2.3199-0.51 4.79-1.02 5.88 1.72 1.96-0.03 3.67 0.88 5.16 2.11-0.53 1.21-1.02 2.4301-1.49 3.66-2.3401 0.71-4.7401 1.24-7.14 1.64-1.41-2.86-3.2-5.82-2.41-9.13z" fill="#E0E3E2"/>
	<path d="m1214.2 700.18c3.4199 0.42 6.5599-1.12 9.84-1.74 3.38 0.06 6.01 3.8 5.5499 7.07-1.5299 1.9-3.5 3.35-6.0699 2.86 0.0601 1.97 0.63 4.55-1.46 5.73-2.4701 1.86-5.52-0.02-7.64-1.5-0.3001-4.14 0.1099-8.29-0.22-12.42z" fill="#DFE2E4"/>
	<path d="m1203.8 701.61c1.49-0.09 3.08-0.59 4.5599-0.04 2.3101 1.76 4.24 5.37 2.27 8.07-2.22 3.18-5.65 5.35-7.42 8.89-2.71-3.78-8.4299-3.47-10.81-7.46-0.27-2.48-0.9301-5.7 1.34-7.46 2.5601-0.82 5.53-0.66 7.41 1.48 0.87-1.17 1.76-2.32 2.65-3.48z" fill="#E0E1E2"/>
	<path d="m1181.1 710.95c5.9501-2.41 11.93 2.2 14.48 7.36 1.4 3.91-0.0199 8-1.5 11.66-1.8199 4.4301-2.4199 9.2401-2.3899 14-3.8101-0.87-7.7201-1.84-11.64-1.14-4.9701 0.72-10.85 1.73-15.01-1.85-3.05-3.03-5.52-7.4-4.5601-11.83 0.73-2.7401 2.76-5.07 5.28-6.34 3.23-1.12 6.85-0.68 9.86 0.92-0.83-4.84 0.39-10.83 5.48-12.78z" fill="#E0E1E1"/>
	<path d="m1352.2 837.92c-0.23-2.43 2.04-5.22 4.67-4.8 1.7 0.25 2.11 2.13 3 3.34 1.42-0.4901 3.58-1.65 4.8099-0.14 1.8301 1.53 1.26 4.57-0.26 6.12-2.49 1.29-5.3099 1.7-7.96 2.48-1.1899-2.48-3.04-4.56-4.2599-7z" fill="#E0E3E3"/>
	<path d="m1381.2 908.34c2.6699-0.5 5.33-1.15 7.88-2.13 4.38-2.12 7.99 1.79 8.77 5.84-1.27 2.64-3.55 4.04-6.4801 3.93-0.08 1.86 0.75 4.07-0.72 5.6-1.23 1.84-3.6 1.75-5.52 1.93-1.25-1.25-2.63-2.39-3.5699-3.87-0.42-3.75-0.03-7.54-0.36-11.3z" fill="#E1E2E0"/>
</svg>
