<svg xmlns="http://www.w3.org/2000/svg" width="19.7" height="17.898" viewBox="0 0 19.7 17.898">
  <path id="heart" d="M15.163,6.567A4.991,4.991,0,0,1,18.88,5c3.268,0,5.82,2.642,5.82,6.4,0,2.239-1.119,4.119-3.134,6.134-.448.448-1.791,1.657-1.836,1.7-.179.179-.4.358-.627.582-.269.224-.582.493-.851.716-.627.537-1.3,1.03-1.97,1.522a7.655,7.655,0,0,0-.627.493,2.652,2.652,0,0,0-.269.179.873.873,0,0,1-1.03,0,2.652,2.652,0,0,0-.269-.179c-.179-.134-.4-.313-.627-.493-.672-.493-1.343-1.03-1.97-1.522-.313-.269-.582-.493-.851-.716-.224-.179-.4-.4-.627-.582-.09-.045-1.433-1.254-1.88-1.7C6.075,15.522,5,13.641,5,11.4,5,7.642,7.552,5,10.82,5a4.991,4.991,0,0,1,3.716,1.567,2.069,2.069,0,0,1,.313.313,2.068,2.068,0,0,1,.313-.313Zm.045,14.1c.627-.493,1.3-.985,1.88-1.478a6.512,6.512,0,0,0,.806-.716,6.887,6.887,0,0,0,.582-.537c.09-.09,1.433-1.3,1.836-1.7,1.7-1.7,2.6-3.179,2.6-4.835,0-2.776-1.791-4.612-4.03-4.612a3.527,3.527,0,0,0-2.463,1.03,4.091,4.091,0,0,0-.582.716c-.09.134-.134.269-.179.313A.907.907,0,0,1,14,8.85a3.475,3.475,0,0,0-.179-.313,4.521,4.521,0,0,0-.582-.716,3.343,3.343,0,0,0-2.418-1.03c-2.239,0-4.03,1.836-4.03,4.612,0,1.657.9,3.134,2.6,4.88.4.4,1.746,1.612,1.836,1.7a6.886,6.886,0,0,0,.582.537c.269.224.537.448.806.716.582.493,1.254.985,1.88,1.478.134.09.224.179.358.269a1.207,1.207,0,0,1,.358-.313Z" transform="translate(-5 -5)" fill="#78849e"/>
</svg>
