<svg xmlns="http://www.w3.org/2000/svg" width="25.13" height="22.533" viewBox="0 0 25.13 22.533">
  <g id="home" transform="translate(0.502 -27.271)">
    <g id="Group_3915" data-name="Group 3915" transform="translate(-0.001 27.798)">
      <g id="Group_3914" data-name="Group 3914">
        <path id="Path_2914" data-name="Path 2914" d="M23.87,36.292,12.433,27.919a.627.627,0,0,0-.741,0L.256,36.292A.627.627,0,0,0,1,37.3l11.066-8.1,11.066,8.1a.627.627,0,0,0,.741-1.012Z" transform="translate(0.001 -27.798)" fill="#78849e" stroke="#78849e" stroke-width="1"/>
      </g>
    </g>
    <g id="Group_3917" data-name="Group 3917" transform="translate(2.66 37.446)">
      <g id="Group_3916" data-name="Group 3916">
        <path id="Path_2915" data-name="Path 2915" d="M74.632,232.543a.627.627,0,0,0-.627.627v9.978H68.99V237.7a3.135,3.135,0,0,0-6.269,0v5.447H57.706V233.17a.627.627,0,0,0-1.254,0v10.605a.627.627,0,0,0,.627.627h6.269a.627.627,0,0,0,.624-.578.472.472,0,0,0,0-.049V237.7a1.881,1.881,0,0,1,3.762,0v6.074a.46.46,0,0,0,0,.048.627.627,0,0,0,.624.579h6.269a.627.627,0,0,0,.627-.627V233.17A.627.627,0,0,0,74.632,232.543Z" transform="translate(-56.452 -232.543)" fill="#78849e" stroke="#78849e" stroke-width="1"/>
      </g>
    </g>
  </g>
</svg>
