<svg xmlns="http://www.w3.org/2000/svg" width="22.574" height="52.576" viewBox="0 0 22.574 52.576">
  <path id="Path_2913" data-name="Path 2913" d="M133.445,18.032a.679.679,0,0,0-.6-.506h-7.868l7.765-16.18a1.121,1.121,0,0,0,.021-.891A.662.662,0,0,0,132.18,0H121.557a.673.673,0,0,0-.594.485L111,26.773a1.122,1.122,0,0,0,.029.852.651.651,0,0,0,.565.416h6.827L110.985,51.36a1.039,1.039,0,0,0,.266,1.087.548.548,0,0,0,.346.129.614.614,0,0,0,.509-.311l21.246-33.3A1.107,1.107,0,0,0,133.445,18.032Z" transform="translate(-110.933)" fill="#fff"/>
</svg>
