<svg xmlns="http://www.w3.org/2000/svg" width="2682" height="2682" viewBox="0 0 2682 2682">
  <g id="like" transform="translate(-1416 -783)">
    <circle id="like-2" data-name="like" cx="1341" cy="1341" r="1341" transform="translate(1416 783)" fill="#4499fe"/>
    <path id="Path_5" data-name="Path 5" d="M2114,2021h238a33.719,33.719,0,0,1,34,34v685a33.719,33.719,0,0,1-34,34H2114c-19,0-35-15-35-34V2055C2079,2036,2095,2021,2114,2021Zm412,657h727c53,0,97-43,97-97h0c0-40-26-75-62-90h18c51,0,93-56,93-107h0c0-52-42-94-93-94h-18v-8h52c51,0,94-42,94-93h0c0-52-43-94-94-94h-52v-8h52c51,0,94-42,94-93h0c0-52-43-94-94-94H2933c-3-1-3-4,0-10q7.5-15,33-60c17-30,38-69,49-119s10-111,1-159c-8-47-25-82-46-104-22-22-47-32-73-33s-53,6-72,23c-19,18-29,45-34,80-4,36-1,80-2,107-2,27-7,38-24,51-18,13-47,30-74,53-27,24-52,54-78,89-42,54-147,190-147,248v552A60.176,60.176,0,0,0,2526,2678Z" fill="#fefefe" fill-rule="evenodd"/>
  </g>
</svg>
