<svg xmlns="http://www.w3.org/2000/svg" xmlns:xlink="http://www.w3.org/1999/xlink" width="6365" height="3421" viewBox="0 0 6365 3421">
  <defs>
    <clipPath id="clip-path">
      <path id="Path_43" data-name="Path 43" d="M94-817H6459V2604H94Z" clip-rule="evenodd"/>
    </clipPath>
    <linearGradient id="linear-gradient" x1="0.059" y1="0.515" x2="0.891" y2="0.479" gradientUnits="objectBoundingBox">
      <stop offset="0" stop-color="red"/>
      <stop offset="0.42" stop-color="#960505"/>
      <stop offset="1" stop-color="red"/>
    </linearGradient>
    <linearGradient id="linear-gradient-2" x1="0.207" y1="0.539" x2="0.735" y2="0.464" xlink:href="#linear-gradient"/>
    <linearGradient id="linear-gradient-3" x1="0.302" y1="0.563" x2="0.645" y2="0.45" xlink:href="#linear-gradient"/>
    <linearGradient id="linear-gradient-4" x1="0.351" y1="0.596" x2="0.602" y2="0.43" xlink:href="#linear-gradient"/>
    <linearGradient id="linear-gradient-5" x1="0.389" y1="0.64" x2="0.571" y2="0.406" xlink:href="#linear-gradient"/>
    <linearGradient id="linear-gradient-6" x1="0.42" y1="0.7" x2="0.547" y2="0.377" xlink:href="#linear-gradient"/>
    <linearGradient id="linear-gradient-8" x1="0.448" y1="0.78" x2="0.525" y2="0.345" xlink:href="#linear-gradient"/>
    <linearGradient id="linear-gradient-9" x1="0.471" y1="0.922" x2="0.508" y2="0.277" xlink:href="#linear-gradient"/>
    <linearGradient id="linear-gradient-10" x1="0.493" y1="1.169" x2="0.493" y2="0.13" xlink:href="#linear-gradient"/>
    <linearGradient id="linear-gradient-11" x1="0.515" y1="0.941" x2="0.479" y2="0.109" xlink:href="#linear-gradient"/>
    <linearGradient id="linear-gradient-12" x1="0.539" y1="0.793" x2="0.464" y2="0.265" xlink:href="#linear-gradient"/>
    <linearGradient id="linear-gradient-13" x1="0.563" y1="0.698" x2="0.45" y2="0.355" xlink:href="#linear-gradient"/>
    <linearGradient id="linear-gradient-15" x1="0.596" y1="0.649" x2="0.43" y2="0.398" xlink:href="#linear-gradient"/>
    <linearGradient id="linear-gradient-16" x1="0.64" y1="0.611" x2="0.406" y2="0.429" xlink:href="#linear-gradient"/>
    <linearGradient id="linear-gradient-17" x1="0.7" y1="0.58" x2="0.377" y2="0.453" xlink:href="#linear-gradient"/>
    <linearGradient id="linear-gradient-18" x1="0.78" y1="0.552" x2="0.344" y2="0.475" xlink:href="#linear-gradient"/>
    <linearGradient id="linear-gradient-19" x1="0.922" y1="0.529" x2="0.277" y2="0.492" xlink:href="#linear-gradient"/>
    <linearGradient id="linear-gradient-20" x1="2.804" y1="0.512" x2="-0.62" y2="0.512" xlink:href="#linear-gradient"/>
    <linearGradient id="linear-gradient-22" x1="0.941" y1="0.485" x2="0.109" y2="0.521" xlink:href="#linear-gradient"/>
    <linearGradient id="linear-gradient-23" x1="0.793" y1="0.461" x2="0.265" y2="0.536" xlink:href="#linear-gradient"/>
    <linearGradient id="linear-gradient-24" x1="0.698" y1="0.437" x2="0.355" y2="0.55" xlink:href="#linear-gradient"/>
    <linearGradient id="linear-gradient-25" x1="0.649" y1="0.404" x2="0.398" y2="0.57" xlink:href="#linear-gradient"/>
    <linearGradient id="linear-gradient-26" x1="0.611" y1="0.36" x2="0.429" y2="0.594" xlink:href="#linear-gradient"/>
    <linearGradient id="linear-gradient-27" x1="0.166" y1="0.689" x2="0.045" y2="1.125" xlink:href="#linear-gradient"/>
    <linearGradient id="linear-gradient-29" x1="0.552" y1="0.22" x2="0.475" y2="0.656" xlink:href="#linear-gradient"/>
    <linearGradient id="linear-gradient-30" x1="0.529" y1="0.078" x2="0.492" y2="0.723" xlink:href="#linear-gradient"/>
    <linearGradient id="linear-gradient-31" x1="0.507" y1="-0.169" x2="0.507" y2="0.87" xlink:href="#linear-gradient"/>
    <linearGradient id="linear-gradient-32" x1="0.485" y1="0.059" x2="0.521" y2="0.891" xlink:href="#linear-gradient"/>
    <linearGradient id="linear-gradient-33" x1="0.461" y1="0.207" x2="0.536" y2="0.735" xlink:href="#linear-gradient"/>
    <linearGradient id="linear-gradient-34" x1="0.048" y1="1.705" x2="0.153" y2="2.244" xlink:href="#linear-gradient"/>
    <linearGradient id="linear-gradient-36" x1="0.404" y1="0.351" x2="0.57" y2="0.602" xlink:href="#linear-gradient"/>
    <linearGradient id="linear-gradient-37" x1="0.36" y1="0.389" x2="0.594" y2="0.571" xlink:href="#linear-gradient"/>
    <linearGradient id="linear-gradient-38" x1="0.3" y1="0.42" x2="0.623" y2="0.547" xlink:href="#linear-gradient"/>
    <linearGradient id="linear-gradient-39" x1="0.22" y1="0.448" x2="0.656" y2="0.525" xlink:href="#linear-gradient"/>
    <linearGradient id="linear-gradient-40" x1="0.078" y1="0.471" x2="0.723" y2="0.508" xlink:href="#linear-gradient"/>
    <linearGradient id="linear-gradient-41" x1="-0.169" y1="0.493" x2="0.87" y2="0.493" xlink:href="#linear-gradient"/>
  </defs>
  <g id="lines" transform="translate(-94 817)">
    <g id="Group_1" data-name="Group 1" clip-path="url(#clip-path)">
      <rect id="Rectangle_1" data-name="Rectangle 1" width="16091" height="10273" transform="translate(-4371 -6394)" fill="#1a1a1a"/>
      <path id="Path_1" data-name="Path 1" d="M3995-11170c434,156,936,937,698,1817-260,959-1036,1996-1062,3394,244,1425,473,2697,425,3588-50,898-333,1448-617,1448s-564-576-668-1522c-103-925-1-2208,122-3616-31-1429-180-2786,9-3735C3096-10773,3561-11327,3995-11170Z" fill="rgba(0,0,0,0)" fill-rule="evenodd"/>
      <path id="Path_2" data-name="Path 2" d="M2207-11111c454,79,1085,760,1003,1668-89,990-673,2145-456,3527,488,1361,934,2574,1041,3460,107,893-77,1483-356,1533-279,49-655-470-922-1383-262-893-384-2174-508-3583-278-1401-661-2711-640-3679C1390-10563,1752-11190,2207-11111Z" fill-rule="evenodd" fill="url(#linear-gradient)"/>
      <path id="Path_3" data-name="Path 3" d="M456-10742c462-2,1201,560,1278,1469,84,989-290,2229,163,3552,717,1255,1368,2373,1626,3226,261,861,183,1475-84,1572-266,97-727-349-1149-1202-412-834-755-2074-1121-3440C651-6896,47-8121-101-9077-252-10061-5-10741,456-10742Z" fill-rule="evenodd" fill="url(#linear-gradient-2)"/>
      <path id="Path_4" data-name="Path 4" d="M-1203-10075c454-82,1280,343,1513,1225,254,960,101,2246,777,3469,924,1112,1759,2100,2162,2895,407,803,436,1421,190,1563-246,141-776-217-1340-984C1548-2657,995-3819,397-5100-344-6321-1151-7422-1463-8339-1783-9281-1658-9994-1203-10075Z" fill-rule="evenodd" fill="url(#linear-gradient-3)"/>
      <path id="Path_5" data-name="Path 5" d="M-2722-9130c433-159,1320,116,1703,943,417,902,489,2195,1368,3282,1103,935,2097,1763,2632,2476,539,720,675,1323,458,1506-217,182-802-79-1490-737C1276-2302,529-3350-282-4508c-942-1075-1928-2019-2394-2867C-3155-8248-3155-8971-2722-9130Z" fill-rule="evenodd" fill="url(#linear-gradient-4)"/>
      <path id="Path_6" data-name="Path 6" d="M-4054-7936c399-231,1321-115,1842,634,567,815,863,2076,1917,2994C953-3579,2075-2936,2726-2326c657,615,895,1185,713,1403-182,217-803,61-1595-467C1069-1906,152-2808-848-3808c-1114-894-2249-1652-2855-2407C-4327-6991-4452-7704-4054-7936Z" fill-rule="evenodd" fill="url(#linear-gradient-5)"/>
      <path id="Path_7" data-name="Path 7" d="M-5157-6528c352-297,1280-342,1923,304,700,704,1210,1895,2408,2616,1356,501,2573,939,3319,1427,754,492,1088,1012,946,1258-142,245-780,200-1652-182C934-1479-125-2209-1284-3019c-1252-688-2502-1238-3230-1876C-5263-5551-5510-6230-5157-6528Z" fill-rule="evenodd" fill="url(#linear-gradient-6)"/>
      <path id="Path_8" data-name="Path 8" d="M-5157-6528c352-297,1280-342,1923,304,700,704,1210,1895,2408,2616,1356,501,2573,939,3319,1427,754,492,1088,1012,946,1258-142,245-780,200-1652-182C934-1479-125-2209-1284-3019c-1252-688-2502-1238-3230-1876C-5263-5551-5510-6230-5157-6528Z" fill-rule="evenodd" fill="url(#linear-gradient-6)"/>
      <path id="Path_9" data-name="Path 9" d="M-6000-4950c296-354,1201-560,1947-35,812,572,1521,1656,2825,2159,1423,258,2697,477,3517,828,828,354,1247,808,1150,1075-97,266-734,332-1659,107C876-1036-295-1570-1576-2168c-1353-459-2679-783-3507-1285C-5934-3969-6296-4596-6000-4950Z" fill-rule="evenodd" fill="url(#linear-gradient-8)"/>
      <path id="Path_10" data-name="Path 10" d="M-6556-3250c230-400,1086-760,1911-372,899,422,1786,1366,3158,1635,1446,7,2739,2,3607,205,877,205,1368,579,1319,859-49,279-665,455-1615,394C895-589-350-912-1716-1278c-1412-217-2774-307-3676-657C-6320-2295-6785-2850-6556-3250Z" fill-rule="evenodd" fill="url(#linear-gradient-9)"/>
      <path id="Path_11" data-name="Path 11" d="M-6808-1479c157-434,938-937,1818-698,958,260,1995,1035,3393,1062,1425-245,2698-474,3588-425,899,49,1448,333,1448,617,0,283-576,563-1522,668C992-153-291-254-1699-377c-1428,31-2785,179-3735-9C-6410-580-6965-1045-6808-1479Z" fill-rule="evenodd" fill="url(#linear-gradient-10)"/>
      <path id="Path_12" data-name="Path 12" d="M-6749,309c79-455,761-1085,1669-1003,989,89,2145,673,3526,456,1361-488,2575-935,3460-1041,894-108,1484,76,1533,356,49,279-469,655-1383,922C1163,261-118,383-1526,507c-1401,278-2712,660-3680,640C-6201,1125-6828,763-6749,309Z" fill-rule="evenodd" fill="url(#linear-gradient-11)"/>
      <path id="Path_13" data-name="Path 13" d="M-6380,2059c-1-461,561-1201,1469-1277,990-84,2229,290,3552-163C-103-98,1014-749,1868-1007c861-261,1474-183,1571,84,97,266-348,726-1201,1148C1403,638,163,981-1202,1347c-1332,518-2556,1122-3513,1269C-5699,2768-6379,2521-6380,2059Z" fill-rule="evenodd" fill="url(#linear-gradient-12)"/>
      <path id="Path_14" data-name="Path 14" d="M-5713,3719c-81-454,344-1280,1225-1513,960-255,2246-101,3470-778C94,504,1081-330,1877-733c803-407,1420-436,1562-190,142,245-217,776-984,1339C1705,968,544,1521-738,2119c-1221,740-2322,1548-3238,1859C-4919,4299-5632,4173-5713,3719Z" fill-rule="evenodd" fill="url(#linear-gradient-13)"/>
      <path id="Path_15" data-name="Path 15" d="M-5713,3719c-81-454,344-1280,1225-1513,960-255,2246-101,3470-778C94,504,1081-330,1877-733c803-407,1420-436,1562-190,142,245-217,776-984,1339C1705,968,544,1521-738,2119c-1221,740-2322,1548-3238,1859C-4919,4299-5632,4173-5713,3719Z" fill-rule="evenodd" fill="url(#linear-gradient-13)"/>
      <path id="Path_16" data-name="Path 16" d="M-4768,5238c-159-433,116-1320,944-1703,901-418,2194-490,3282-1368C392,1063,1220,70,1934-465c720-540,1323-676,1505-458,182,217-79,802-736,1490C2060,1240,1012,1986-146,2798c-1074,941-2018,1928-2867,2394C-3885,5671-4609,5671-4768,5238Z" fill-rule="evenodd" fill="url(#linear-gradient-15)"/>
      <path id="Path_17" data-name="Path 17" d="M-3573,6569c-232-399-115-1320,633-1841,815-567,2076-863,2995-1917C784,1562,1426,440,2036-211c616-656,1186-895,1403-712,217,182,62,803-466,1595C2457,1447,1554,2364,555,3364-340,4477-1098,5613-1853,6219-2629,6842-3341,6968-3573,6569Z" fill-rule="evenodd" fill="url(#linear-gradient-16)"/>
      <path id="Path_18" data-name="Path 18" d="M-2166,7673c-297-353-342-1280,304-1923C-1157,5050,33,4540,755,3342,1256,1986,1694,769,2181,22c492-753,1012-1087,1258-945,246,141,200,780-182,1652-374,852-1103,1912-1914,3070C656,5052,106,6301-532,7029-1188,7778-1868,8026-2166,7673Z" fill-rule="evenodd" fill="url(#linear-gradient-17)"/>
      <path id="Path_19" data-name="Path 19" d="M-588,8516c-354-296-559-1202-34-1947,572-812,1655-1521,2158-2826,258-1422,478-2697,829-3517,353-827,808-1246,1074-1149s333,733,108,1658c-221,905-755,2075-1352,3357C1735,5444,1411,6770,909,7598,393,8449-233,8811-588,8516Z" fill-rule="evenodd" fill="url(#linear-gradient-18)"/>
      <path id="Path_20" data-name="Path 20" d="M1113,9071C712,8842,353,7986,741,7160c422-899,1366-1785,1634-3157,7-1446,3-2739,205-3608,205-876,580-1368,859-1318,279,49,455,665,394,1614-60,929-383,2175-748,3540-218,1412-307,2775-658,3677C2067,8836,1513,9301,1113,9071Z" fill-rule="evenodd" fill="url(#linear-gradient-19)"/>
      <path id="Path_21" data-name="Path 21" d="M2884,9324c-434-157-937-938-699-1818,260-958,1036-1995,1062-3393-244-1425-473-2698-424-3588,49-899,332-1448,616-1448s564,575,668,1521c103,926,1,2208-122,3617,31,1428,180,2785-9,3735C3783,8926,3317,9480,2884,9324Z" fill-rule="evenodd" fill="url(#linear-gradient-20)"/>
      <path id="Path_22" data-name="Path 22" d="M2884,9324c-434-157-937-938-699-1818,260-958,1036-1995,1062-3393-244-1425-473-2698-424-3588,49-899,332-1448,616-1448s564,575,668,1521c103,926,1,2208-122,3617,31,1428,180,2785-9,3735C3783,8926,3317,9480,2884,9324Z" fill-rule="evenodd" fill="url(#linear-gradient-20)"/>
      <path id="Path_23" data-name="Path 23" d="M4671,9264c-454-79-1085-760-1003-1668,89-989,673-2145,456-3527C3636,2709,3190,1495,3083,610c-107-894,77-1484,356-1533,279-50,655,469,923,1382,261,894,384,2174,507,3583,278,1401,661,2712,640,3679C5488,8717,5126,9343,4671,9264Z" fill-rule="evenodd" fill="url(#linear-gradient-22)"/>
      <path id="Path_24" data-name="Path 24" d="M6422,8896c-462,1-1201-561-1278-1469-84-990,291-2230-163-3552C4264,2619,3614,1502,3355,648c-261-861-182-1474,84-1571,267-97,727,348,1149,1201,412,834,755,2075,1122,3440,517,1332,1121,2556,1269,3513C7131,8214,6883,8894,6422,8896Z" fill-rule="evenodd" fill="url(#linear-gradient-23)"/>
      <path id="Path_25" data-name="Path 25" d="M8081,8228c-454,82-1280-343-1513-1224-254-960-101-2246-777-3470C4867,2422,4032,1435,3629,639,3223-164,3193-782,3439-923c246-142,776,216,1340,983,551,750,1104,1912,1702,3193,741,1222,1548,2323,1860,3239C8661,7435,8536,8147,8081,8228Z" fill-rule="evenodd" fill="url(#linear-gradient-24)"/>
      <path id="Path_26" data-name="Path 26" d="M9600,7283c-433,159-1320-116-1703-943-417-901-489-2194-1368-3282C5426,2123,4432,1296,3897,582,3358-138,3222-741,3439-923c217-183,802,78,1490,736,673,643,1420,1691,2231,2849,942,1074,1928,2018,2394,2866C10033,6401,10033,7124,9600,7283Z" fill-rule="evenodd" fill="url(#linear-gradient-25)"/>
      <path id="Path_27" data-name="Path 27" d="M10932,6089c-399,231-1321,115-1842-634-567-815-862-2076-1917-2994C5925,1732,4803,1090,4152,480,3495-136,3257-706,3439-923c182-218,803-62,1595,466C5809,59,6726,961,7726,1961c1114,894,2249,1653,2855,2407C11205,5145,11331,5857,10932,6089Z" fill-rule="evenodd" fill="url(#linear-gradient-26)"/>
      <path id="Path_28" data-name="Path 28" d="M12035,4681c-352,298-1280,343-1923-304-700-704-1210-1894-2408-2616C6348,1260,5131,822,4385,334,3631-158,3297-678,3439-923c142-246,781-201,1652,182C5944-367,7003,362,8162,1173c1252,687,2502,1237,3230,1875C12141,3704,12388,4384,12035,4681Z" fill-rule="evenodd" fill="url(#linear-gradient-27)"/>
      <path id="Path_29" data-name="Path 29" d="M12035,4681c-352,298-1280,343-1923-304-700-704-1210-1894-2408-2616C6348,1260,5131,822,4385,334,3631-158,3297-678,3439-923c142-246,781-201,1652,182C5944-367,7003,362,8162,1173c1252,687,2502,1237,3230,1875C12141,3704,12388,4384,12035,4681Z" fill-rule="evenodd" fill="url(#linear-gradient-27)"/>
      <path id="Path_30" data-name="Path 30" d="M12878,3103c-296,354-1201,560-1947,35-812-572-1521-1656-2825-2158C6683,722,5409,502,4589,151,3761-203,3342-657,3439-923c97-267,734-333,1659-108C6002-811,7173-276,8454,321c1353,459,2679,784,3507,1285C12812,2122,13174,2749,12878,3103Z" fill-rule="evenodd" fill="url(#linear-gradient-29)"/>
      <path id="Path_31" data-name="Path 31" d="M13434,1403c-230,400-1086,760-1911,372C10624,1353,9737,409,8365,140c-1446-7-2739-2-3607-205C3881-269,3390-644,3439-923c49-280,665-456,1615-394,929,59,2174,382,3540,748,1412,218,2774,307,3676,657C13198,449,13664,1003,13434,1403Z" fill-rule="evenodd" fill="url(#linear-gradient-30)"/>
      <path id="Path_32" data-name="Path 32" d="M13686-368c-157,434-938,937-1818,698C10910,71,9873-705,8475-731,7050-487,5778-258,4887-307c-899-49-1448-333-1448-616,0-284,576-564,1522-669,925-102,2208,0,3616,123,1428-31,2785-180,3735,8C13288-1267,13843-802,13686-368Z" fill-rule="evenodd" fill="url(#linear-gradient-31)"/>
      <path id="Path_33" data-name="Path 33" d="M13627-2156c-79,455-761,1086-1669,1004-989-90-2145-674-3526-457C7071-1121,5858-674,4972-568c-894,108-1484-76-1533-355-49-280,469-656,1383-923,893-261,2174-384,3582-507,1401-279,2712-661,3680-640C13079-2972,13706-2610,13627-2156Z" fill-rule="evenodd" fill="url(#linear-gradient-32)"/>
      <path id="Path_34" data-name="Path 34" d="M13258-3906c1,461-561,1201-1469,1278-990,83-2229-291-3552,163C6981-1748,5864-1098,5010-839c-861,261-1474,182-1571-84-97-267,348-727,1201-1149,835-413,2075-756,3440-1122,1332-517,2556-1121,3513-1269C12577-4615,13257-4367,13258-3906Z" fill-rule="evenodd" fill="url(#linear-gradient-33)"/>
      <path id="Path_35" data-name="Path 35" d="M12591-5566c81,454-344,1280-1225,1514-960,254-2246,101-3470,777C6784-2351,5797-1516,5001-1113,4198-707,3581-678,3439-923c-142-246,217-776,984-1340,750-551,1911-1105,3193-1702,1221-741,2322-1549,3239-1860C11797-6146,12510-6020,12591-5566Z" fill-rule="evenodd" fill="url(#linear-gradient-34)"/>
      <path id="Path_36" data-name="Path 36" d="M12591-5566c81,454-344,1280-1225,1514-960,254-2246,101-3470,777C6784-2351,5797-1516,5001-1113,4198-707,3581-678,3439-923c-142-246,217-776,984-1340,750-551,1911-1105,3193-1702,1221-741,2322-1549,3239-1860C11797-6146,12510-6020,12591-5566Z" fill-rule="evenodd" fill="url(#linear-gradient-34)"/>
      <path id="Path_37" data-name="Path 37" d="M11646-7084c159,433-116,1320-944,1703-901,417-2194,489-3282,1368C6486-2910,5658-1917,4944-1382,4224-842,3621-706,3439-923c-182-218,79-802,736-1491,643-673,1691-1419,2849-2230,1074-942,2018-1928,2867-2394C10763-7518,11487-7518,11646-7084Z" fill-rule="evenodd" fill="url(#linear-gradient-36)"/>
      <path id="Path_38" data-name="Path 38" d="M10451-8416c232,399,115,1320-633,1841-815,567-2076,863-2995,1917C6094-3409,5452-2287,4842-1636,4227-980,3656-741,3439-923c-217-183-62-804,466-1596,517-774,1419-1691,2418-2691,895-1114,1653-2250,2408-2856C9507-8689,10219-8815,10451-8416Z" fill-rule="evenodd" fill="url(#linear-gradient-37)"/>
      <path id="Path_39" data-name="Path 39" d="M9044-9520c297,353,342,1281-304,1923-705,701-1895,1211-2617,2408-501,1357-938,2573-1426,3320C4205-1116,3685-782,3439-923c-246-142-200-781,182-1653,374-852,1103-1912,1914-3070,688-1252,1237-2502,1875-3230C8066-9625,8746-9872,9044-9520Z" fill-rule="evenodd" fill="url(#linear-gradient-38)"/>
      <path id="Path_40" data-name="Path 40" d="M7466-10362c354,295,559,1201,34,1946-572,812-1655,1521-2158,2826-258,1423-478,2697-828,3517C4160-1246,3705-826,3439-923s-333-734-108-1659c221-904,755-2075,1352-3356,460-1353,784-2679,1286-3507C6485-10296,7112-10658,7466-10362Z" fill-rule="evenodd" fill="url(#linear-gradient-39)"/>
      <path id="Path_41" data-name="Path 41" d="M5765-10918c401,229,760,1086,373,1911-423,899-1367,1785-1635,3157-7,1446-3,2739-205,3608-205,876-580,1368-859,1319-279-50-455-665-394-1615,60-929,383-2175,748-3540,218-1412,307-2774,658-3677C4811-10683,5365-11148,5765-10918Z" fill-rule="evenodd" fill="url(#linear-gradient-40)"/>
      <path id="Path_42" data-name="Path 42" d="M3995-11170c434,156,936,937,698,1817-260,959-1036,1996-1062,3394,244,1425,473,2697,425,3588-50,898-333,1448-617,1448s-564-576-668-1522c-103-925-1-2208,122-3616-31-1429-180-2786,9-3735C3096-10773,3561-11327,3995-11170Z" fill-rule="evenodd" fill="url(#linear-gradient-41)"/>
    </g>
    <path id="Path_44" data-name="Path 44" d="M94-817H6459V2604H94Z" fill="none" fill-rule="evenodd"/>
  </g>
</svg>
