<svg xmlns="http://www.w3.org/2000/svg" width="18" height="18" viewBox="0 0 18 18">
  <path id="loop" d="M15.4,2.6l.9-.9c.4-.4.7-.3.7.3V5.5a.472.472,0,0,1-.5.5H13c-.6,0-.7-.3-.3-.7L14,4.1a7.028,7.028,0,0,0-5-2,7.2,7.2,0,0,0-5,2A6.8,6.8,0,0,0,2,9a.945.945,0,0,1-1,1A.945.945,0,0,1,0,9,9.051,9.051,0,0,1,15.4,2.6ZM2.6,15.4l-.9.9c-.4.4-.7.3-.7-.3V12.5a.472.472,0,0,1,.5-.5H5c.6,0,.7.3.3.7L4,14a7.028,7.028,0,0,0,5,2,7.2,7.2,0,0,0,5-2,7.028,7.028,0,0,0,2-5,1,1,0,0,1,2,0A9.051,9.051,0,0,1,2.6,15.4Z" fill="#fff" fill-rule="evenodd"/>
</svg>
