<svg xmlns="http://www.w3.org/2000/svg" width="22.059" height="22.092" viewBox="0 0 22.059 22.092">
  <g id="wedding-photos" transform="translate(0.254 0.291)">
    <g id="Group_3920" data-name="Group 3920" transform="translate(0 0.001)">
      <g id="Group_3919" data-name="Group 3919" transform="translate(0 0)">
        <path id="Path_2919" data-name="Path 2919" d="M21.4,4.049a1.338,1.338,0,0,0-.789-.664L13.155,1.024l-.009,0L13.12.941A1.348,1.348,0,0,0,11.43.064L.941,3.386A1.347,1.347,0,0,0,.064,5.076L4.986,20.611a1.346,1.346,0,0,0,1.691.877l4.1-1.3,4.1,1.3a1.347,1.347,0,0,0,1.691-.877l.8-2.516,0-.011a1.347,1.347,0,0,0,.677-1.609l-.083-.262L21.487,5.076A1.337,1.337,0,0,0,21.4,4.049ZM15.71,20.34a.449.449,0,0,1-.564.292l-2.883-.913,4.05-1.283Zm1.447-3.251a.446.446,0,0,1-.263.221l-6.237,1.976-.029.009L6.405,20.632a.45.45,0,0,1-.564-.292L.92,4.805a.449.449,0,0,1,.292-.564L11.7.92h0a.45.45,0,0,1,.564.292l4.922,15.535A.446.446,0,0,1,17.157,17.089ZM14.293,4.641,18,5.814l-1.666,5.26Zm6.339.164-3.143,9.921L16.8,12.56l2.051-6.475a.9.9,0,0,0-.585-1.127L14.053,3.623a.452.452,0,0,0-.089-.019l-.487-1.536,6.861,2.173a.449.449,0,0,1,.292.564Z" transform="translate(0 -0.001)" fill="#78849e" stroke="#78849e" stroke-width="0.5"/>
        <path id="Path_2920" data-name="Path 2920" d="M137.212,170.942a1.666,1.666,0,0,0-.878.661,1.666,1.666,0,0,0-1.1-.035,1.658,1.658,0,0,0-1.08,2.082,1.551,1.551,0,0,0,.895.97l1.859.759a.926.926,0,0,0,1.13-.358l1.082-1.691a1.551,1.551,0,0,0,.173-1.308,1.658,1.658,0,0,0-2.082-1.08Zm1.153,1.9-1.082,1.691a.028.028,0,0,1-.035.011l-1.858-.759a.656.656,0,0,1-.378-.41.76.76,0,0,1,.5-.954.767.767,0,0,1,.232-.036.757.757,0,0,1,.5.191.449.449,0,0,0,.733-.232.76.76,0,0,1,1.465-.054A.656.656,0,0,1,138.365,172.846Z" transform="translate(-128.058 -163.192)" fill="#78849e" stroke="#78849e" stroke-width="0.5"/>
        <path id="Path_2921" data-name="Path 2921" d="M68.038,59.759a.9.9,0,0,0-1.127-.585l-7.138,2.261a.9.9,0,0,0-.585,1.127l3.327,10.5a.9.9,0,0,0,1.127.585l7.138-2.261a.9.9,0,0,0,.585-1.127ZM63.371,72.792l-3.327-10.5,3.847-1.218,3.29-1.042,3.327,10.5Z" transform="translate(-56.491 -56.477)" fill="#78849e" stroke="#78849e" stroke-width="0.5"/>
      </g>
    </g>
  </g>
</svg>
