<svg xmlns="http://www.w3.org/2000/svg" width="24.102" height="23.2" viewBox="0 0 24.102 23.2">
  <g id="message" transform="translate(0.5 -4.334)">
    <path id="Path_786" data-name="Path 786" d="M2.787,27.034A3.554,3.554,0,0,1,1.521,26.8l-.914-.347.7-.729a4.221,4.221,0,0,0,1.18-2.91A10.844,10.844,0,0,1,0,15.934a11.345,11.345,0,0,1,11.551-11.1A11.345,11.345,0,0,1,23.1,15.934a11.345,11.345,0,0,1-11.551,11.1,11.928,11.928,0,0,1-5.434-1.305A5.772,5.772,0,0,1,2.787,27.034Zm3.192-2.817.337.187a10.824,10.824,0,0,0,5.234,1.343c5.721,0,10.376-4.4,10.376-9.813S17.272,6.121,11.551,6.121s-10.376,4.4-10.376,9.813A9.5,9.5,0,0,0,3.5,22.124l.153.178.007.244a5.71,5.71,0,0,1-.828,3.2,5.043,5.043,0,0,0,2.85-1.271Z" transform="translate(0 0)" fill="#78849e" stroke="#78849e" stroke-width="1"/>
    <circle id="Ellipse_82" data-name="Ellipse 82" cx="1.353" cy="1.353" r="1.353" transform="translate(16.822 14.581)" fill="#78849e"/>
    <circle id="Ellipse_83" data-name="Ellipse 83" cx="1.353" cy="1.353" r="1.353" transform="translate(11.303 14.581)" fill="#78849e"/>
    <circle id="Ellipse_84" data-name="Ellipse 84" cx="1.353" cy="1.353" r="1.353" transform="translate(5.782 14.581)" fill="#78849e"/>
  </g>
</svg>
