<svg xmlns="http://www.w3.org/2000/svg" xmlns:xlink="http://www.w3.org/1999/xlink" width="9.744" height="12.411" viewBox="0 0 9.744 12.411">
  <defs>
    <linearGradient id="linear-gradient" x1="0.5" x2="0.5" y2="1" gradientUnits="objectBoundingBox">
      <stop offset="0" stop-color="#4d0cbb"/>
      <stop offset="1" stop-color="#fd0767"/>
    </linearGradient>
  </defs>
  <path id="Path_2987" data-name="Path 2987" d="M9.744,5.128a5.013,5.013,0,0,1-1.128,3.18A5.094,5.094,0,0,1,5.641,9.949V12.1c0,.1,0,.1-.1.205a.358.358,0,0,1-.205.1H4.308c-.1,0-.1,0-.205-.1a.142.142,0,0,1,0-.205V9.949A5.094,5.094,0,0,1,1.128,8.308,5.013,5.013,0,0,1,0,5.128a.783.783,0,0,1,.205-.513.783.783,0,0,1,.513-.205.783.783,0,0,1,.513.205.564.564,0,0,1,.308.513A2.97,2.97,0,0,0,2.564,7.488,3.339,3.339,0,0,0,4.923,8.513,2.97,2.97,0,0,0,7.282,7.488a3.249,3.249,0,0,0,.923-2.359.725.725,0,0,1,1.231-.513A.564.564,0,0,1,9.744,5.128Zm-7.18,0V2.257A2.041,2.041,0,0,1,3.282.615,2.166,2.166,0,0,1,4.923,0,1.913,1.913,0,0,1,6.564.718,2.087,2.087,0,0,1,7.18,2.257V5.128A2.041,2.041,0,0,1,6.462,6.77a2.087,2.087,0,0,1-1.539.615A2.166,2.166,0,0,1,3.282,6.77,2.041,2.041,0,0,1,2.564,5.128Z" fill="url(#linear-gradient)"/>
</svg>
