<svg xmlns="http://www.w3.org/2000/svg" xmlns:xlink="http://www.w3.org/1999/xlink" width="16.475" height="16.296" viewBox="0 0 16.475 16.296">
  <defs>
    <linearGradient id="linear-gradient" x1="0.5" x2="0.5" y2="1" gradientUnits="objectBoundingBox">
      <stop offset="0" stop-color="#4d0cbb"/>
      <stop offset="1" stop-color="#fd0767"/>
    </linearGradient>
  </defs>
  <g id="mobile-phone-vibrating" transform="translate(0.251 -2.174)">
    <g id="Group_3972" data-name="Group 3972" transform="translate(-0.001 2.424)">
      <path id="Path_2959" data-name="Path 2959" d="M81.794,43.968l3.985,9.766a.829.829,0,0,0,1.08.454l4.75-1.939a.829.829,0,0,0,.453-1.08L88.077,41.4A.829.829,0,0,0,87,40.95l-4.75,1.939A.829.829,0,0,0,81.794,43.968ZM87.12,41.25a.506.506,0,0,1,.658.276l3.985,9.766a.5.5,0,0,1-.276.658l-4.75,1.939a.505.505,0,0,1-.658-.276l-3.986-9.767a.5.5,0,0,1,.276-.657Z" transform="translate(-78.824 -39.519)" stroke="#4d0cbb" stroke-width="0.5" fill="url(#linear-gradient)"/>
      <path id="Path_2960" data-name="Path 2960" d="M110.025,87.149l4.94-2.016a.081.081,0,0,0,.044-.106l-3.5-8.574a.081.081,0,0,0-.106-.044l-4.94,2.016a.08.08,0,0,0-.044.105l3.5,8.574A.08.08,0,0,0,110.025,87.149Zm1.473-10.3,3.225,7.9a.281.281,0,0,1-.154.367l-4.27,1.743a.281.281,0,0,1-.367-.154l-3.225-7.9a.281.281,0,0,1,.154-.367l4.27-1.743A.281.281,0,0,1,111.5,76.85Z" transform="translate(-102.628 -73.771)" stroke="#4d0cbb" stroke-width="0.5" fill="url(#linear-gradient)"/>
      <path id="Path_2961" data-name="Path 2961" d="M157.145,83.349l.843-.344a.081.081,0,1,0-.061-.15l-.843.344a.081.081,0,1,0,.061.15Z" transform="translate(-151.446 -79.987)" stroke="#4d0cbb" stroke-width="0.5" fill="url(#linear-gradient)"/>
      <path id="Path_2962" data-name="Path 2962" d="M262.591,349.423a.348.348,0,0,0-.453-.191l-.864.353a.348.348,0,0,0-.191.453l.021.052a.348.348,0,0,0,.453.191l.863-.353a.348.348,0,0,0,.191-.453Zm-.231.355-.864.353a.185.185,0,0,1-.241-.1l-.021-.052a.185.185,0,0,1,.1-.241l.864-.353a.185.185,0,0,1,.241.1l.021.052A.186.186,0,0,1,262.36,349.778Z" transform="translate(-251.769 -336.867)" stroke="#4d0cbb" stroke-width="0.5" fill="url(#linear-gradient)"/>
      <path id="Path_2963" data-name="Path 2963" d="M40.4,40.063a.208.208,0,0,0,.06-.149.205.205,0,0,0-.013-.073.211.211,0,0,0-.2-.137,3.06,3.06,0,0,0-3.041,3.071.216.216,0,0,0,.212.21.211.211,0,0,0,.21-.212,2.637,2.637,0,0,1,2.621-2.648A.207.207,0,0,0,40.4,40.063Z" transform="translate(-35.885 -38.377)" stroke="#4d0cbb" stroke-width="0.5" fill="url(#linear-gradient)"/>
      <path id="Path_2964" data-name="Path 2964" d="M4.648,2.845a.212.212,0,0,0,.21-.212.222.222,0,0,0-.014-.073.211.211,0,0,0-.2-.137A4.675,4.675,0,0,0,0,7.118a.215.215,0,0,0,.212.209A.208.208,0,0,0,.36,7.264a.208.208,0,0,0,.061-.149A4.254,4.254,0,0,1,4.648,2.845Z" transform="translate(0.001 -2.424)" stroke="#4d0cbb" stroke-width="0.5" fill="url(#linear-gradient)"/>
      <path id="Path_2965" data-name="Path 2965" d="M356.636,294.49a.206.206,0,0,0-.109.12.213.213,0,0,0,.008.161.212.212,0,0,0,.281.1,3.059,3.059,0,0,0,1.45-4.071.216.216,0,0,0-.281-.1.211.211,0,0,0-.1.281A2.637,2.637,0,0,1,356.636,294.49Z" transform="translate(-343.83 -280.423)" stroke="#4d0cbb" stroke-width="0.5" fill="url(#linear-gradient)"/>
      <path id="Path_2966" data-name="Path 2966" d="M367.408,267.393a.209.209,0,0,0-.107.12.2.2,0,0,0,.008.161,4.254,4.254,0,0,1-2.016,5.66.212.212,0,0,0-.1.281.233.233,0,0,0,.043.06.212.212,0,0,0,.238.039,4.675,4.675,0,0,0,2.215-6.221A.214.214,0,0,0,367.408,267.393Z" transform="translate(-352.178 -257.946)" stroke="#4d0cbb" stroke-width="0.5" fill="url(#linear-gradient)"/>
    </g>
  </g>
</svg>
