<svg xmlns="http://www.w3.org/2000/svg" width="21.705" height="22.562" viewBox="0 0 21.705 22.562">
  <g id="notification" transform="translate(-0.453 0.5)">
    <path id="Path_789" data-name="Path 789" d="M21.656,21.329H.956l0-.453A3.932,3.932,0,0,1,4,17.073V11.8a7.3,7.3,0,1,1,14.6,0v5.272a3.933,3.933,0,0,1,3.047,3.8Zm-19.76-.9H20.716A3.029,3.029,0,0,0,18.1,17.9l-.4-.048V11.8a6.4,6.4,0,0,0-12.8,0V17.85l-.4.048A3.028,3.028,0,0,0,1.9,20.427Z" transform="translate(0 -2.472)" fill="#78849e" stroke="#78849e" stroke-width="1"/>
    <path id="Path_790" data-name="Path 790" d="M20.027,2.7h-.9V2.16a2.16,2.16,0,1,1,4.32,0v.53h-.9V2.16a1.258,1.258,0,1,0-2.517,0Z" transform="translate(-9.979)" fill="#78849e" stroke="#78849e" stroke-width="1"/>
    <path id="Path_791" data-name="Path 791" d="M19.419,43.891a3.768,3.768,0,0,1-3.68-3l.883-.18a2.855,2.855,0,0,0,5.6-.055l.887.163A3.752,3.752,0,0,1,19.419,43.891Z" transform="translate(-8.119 -22.329)" fill="#78849e" stroke="#78849e" stroke-width="1"/>
    <rect id="Rectangle_103" data-name="Rectangle 103" width="1.66" height="0.902" transform="translate(4.456 14.529)" fill="#78849e" stroke="#78849e" stroke-width="1"/>
    <rect id="Rectangle_104" data-name="Rectangle 104" width="9.442" height="0.902" transform="translate(8.714 14.529)" fill="#78849e" stroke="#78849e" stroke-width="1"/>
  </g>
</svg>
