<svg xmlns="http://www.w3.org/2000/svg" width="17.935" height="17.925" viewBox="0 0 17.935 17.925">
  <g id="rotate" transform="translate(0 -0.133)">
    <g id="Group_3952" data-name="Group 3952" transform="translate(1.401 0.133)">
      <g id="Group_3951" data-name="Group 3951" transform="translate(0 0)">
        <g id="Group_3950" data-name="Group 3950">
          <path id="Path_2948" data-name="Path 2948" d="M53.907,2.759a8.973,8.973,0,0,0-10.491-1.61A9.016,9.016,0,0,0,41.4,2.591V.133H40v4.9h4.9v-1.4H42.335A7.565,7.565,0,0,1,55.132,9.1c0,.232-.011.466-.032.7l1.4.127c.025-.272.037-.548.037-.823h0A8.909,8.909,0,0,0,53.907,2.759Z" transform="translate(-40 -0.133)" fill="#a4a4a4"/>
          <path id="Path_2949" data-name="Path 2949" d="M512,256.132Z" transform="translate(-495.467 -247.165)" fill="#a4a4a4"/>
        </g>
      </g>
    </g>
    <g id="Group_3954" data-name="Group 3954" transform="translate(1.982 13.844)">
      <g id="Group_3953" data-name="Group 3953">
        <path id="Path_2950" data-name="Path 2950" d="M57.67,391.566l-1.091.879a9.046,9.046,0,0,0,1.048,1.1l.928-1.05A7.631,7.631,0,0,1,57.67,391.566Z" transform="translate(-56.579 -391.566)" fill="#a4a4a4"/>
      </g>
    </g>
    <g id="Group_3956" data-name="Group 3956" transform="translate(0.508 11.616)">
      <g id="Group_3955" data-name="Group 3955">
        <path id="Path_2951" data-name="Path 2951" d="M15.814,327.943l-1.322.466a8.953,8.953,0,0,0,.625,1.384l1.223-.683A7.549,7.549,0,0,1,15.814,327.943Z" transform="translate(-14.492 -327.943)" fill="#a4a4a4"/>
      </g>
    </g>
    <g id="Group_3958" data-name="Group 3958" transform="translate(0 9.1)">
      <g id="Group_3957" data-name="Group 3957">
        <path id="Path_2952" data-name="Path 2952" d="M1.4,256.133H0a9.055,9.055,0,0,0,.127,1.511l1.381-.235A7.643,7.643,0,0,1,1.4,256.133Z" transform="translate(0 -256.133)" fill="#a4a4a4"/>
      </g>
    </g>
    <g id="Group_3960" data-name="Group 3960" transform="translate(4.247 15.535)">
      <g id="Group_3959" data-name="Group 3959">
        <path id="Path_2953" data-name="Path 2953" d="M121.986,439.841l-.738,1.191a8.963,8.963,0,0,0,1.353.688l.526-1.3A7.557,7.557,0,0,1,121.986,439.841Z" transform="translate(-121.248 -439.841)" fill="#a4a4a4"/>
      </g>
    </g>
    <g id="Group_3962" data-name="Group 3962" transform="translate(15.844 11.057)">
      <g id="Group_3961" data-name="Group 3961">
        <path id="Path_2954" data-name="Path 2954" d="M452.756,311.981a7.536,7.536,0,0,1-.434,1.2l1.273.586a8.933,8.933,0,0,0,.515-1.428Z" transform="translate(-452.322 -311.981)" fill="#a4a4a4"/>
      </g>
    </g>
    <g id="Group_3964" data-name="Group 3964" transform="translate(12.342 15.207)">
      <g id="Group_3963" data-name="Group 3963">
        <path id="Path_2955" data-name="Path 2955" d="M353.434,430.468a7.588,7.588,0,0,1-1.093.667l.626,1.254a8.993,8.993,0,0,0,1.3-.791Z" transform="translate(-352.341 -430.468)" fill="#a4a4a4"/>
      </g>
    </g>
    <g id="Group_3966" data-name="Group 3966" transform="translate(14.401 13.373)">
      <g id="Group_3965" data-name="Group 3965">
        <path id="Path_2956" data-name="Path 2956" d="M411.941,378.123a7.635,7.635,0,0,1-.811.992l1.006.975a9.036,9.036,0,0,0,.96-1.174Z" transform="translate(-411.13 -378.123)" fill="#a4a4a4"/>
      </g>
    </g>
    <g id="Group_3968" data-name="Group 3968" transform="translate(9.9 16.346)">
      <g id="Group_3967" data-name="Group 3967">
        <path id="Path_2957" data-name="Path 2957" d="M283.866,463a7.545,7.545,0,0,1-1.252.263l.171,1.391a8.956,8.956,0,0,0,1.486-.312Z" transform="translate(-282.614 -462.995)" fill="#a4a4a4"/>
      </g>
    </g>
    <g id="Group_3970" data-name="Group 3970" transform="translate(7.051 16.493)">
      <g id="Group_3969" data-name="Group 3969">
        <path id="Path_2958" data-name="Path 2958" d="M201.578,467.185l-.3,1.369a9,9,0,0,0,1.5.2l.063-1.4A7.6,7.6,0,0,1,201.578,467.185Z" transform="translate(-201.28 -467.185)" fill="#a4a4a4"/>
      </g>
    </g>
  </g>
</svg>
