<svg xmlns="http://www.w3.org/2000/svg" width="16.155" height="19.7" viewBox="0 0 16.155 19.7">
  <path id="share" d="M12.193,14.065a2.485,2.485,0,0,1,.09.808,4.945,4.945,0,0,1-.09.808l4.757,3.545a3.118,3.118,0,1,1-1.077,2.333,4.945,4.945,0,0,1,.09-.808l-4.757-3.545a3.039,3.039,0,0,1-2.064.808,3.141,3.141,0,1,1,0-6.283,3.039,3.039,0,0,1,2.064.808l4.757-3.545a6.132,6.132,0,0,1-.09-.853,3.141,3.141,0,1,1,3.141,3.141,3.039,3.039,0,0,1-2.064-.808l-4.757,3.59Zm6.821-4.577a1.346,1.346,0,1,0-1.346-1.346,1.322,1.322,0,0,0,1.346,1.346Zm0,13.463A1.346,1.346,0,1,0,17.668,21.6a1.322,1.322,0,0,0,1.346,1.346ZM9.141,16.219A1.346,1.346,0,1,0,7.8,14.873a1.322,1.322,0,0,0,1.346,1.346Z" transform="translate(-6 -5)" fill="#78849e"/>
</svg>
