<svg xmlns="http://www.w3.org/2000/svg" width="18.1" height="15" viewBox="0 0 18.1 15">
  <path id="shuffle" d="M272,4.5a.945.945,0,0,1,1-1,7.41,7.41,0,0,1,5.7,2.7l.7.9-1.3,1.6-1-1.2a5.422,5.422,0,0,0-4.1-2A.945.945,0,0,1,272,4.5Zm14,1.1v.9c0,.2.1.4.3.4a.349.349,0,0,1,.2.1.367.367,0,0,0,.3-.1l3-2a.5.5,0,0,0,0-.8l-3-2a.367.367,0,0,0-.3-.1c-.1,0-.2,0-.2.1a.536.536,0,0,0-.3.4V3.6a7.91,7.91,0,0,0-4.7,2.6L277,11.5a5.422,5.422,0,0,1-4.1,2,1,1,0,0,0,0,2,7.41,7.41,0,0,0,5.7-2.7l4.3-5.3A5.111,5.111,0,0,1,286,5.6Zm.8,6.5a.367.367,0,0,0-.3-.1c-.1,0-.2,0-.2.1a.536.536,0,0,0-.3.4v.9a5.111,5.111,0,0,1-3.1-1.9l-1-1.2-1.3,1.6.7.9a6.79,6.79,0,0,0,4.7,2.6v1.1c0,.2.1.4.3.4a.349.349,0,0,1,.2.1.367.367,0,0,0,.3-.1l3-2a.5.5,0,0,0,0-.8Z" transform="translate(-271.9 -2)" fill="#fff" fill-rule="evenodd"/>
</svg>
