<svg id="camera" xmlns="http://www.w3.org/2000/svg" width="44.16" height="44.16" viewBox="0 0 44.16 44.16">
  <g id="bg" fill="none" stroke="#fff" stroke-miterlimit="10" stroke-width="1" opacity="0.5">
    <rect width="44.16" height="44.16" rx="20" stroke="none"/>
    <rect x="0.5" y="0.5" width="43.16" height="43.16" rx="19.5" fill="none"/>
  </g>
  <g id="icon_camera" data-name="icon / camera" transform="translate(11.178 12.189)">
    <path id="camera-2" data-name="camera" d="M18.239,18.517H3.634A3.609,3.609,0,0,1,0,14.941V5.614A3.562,3.562,0,0,1,3.45,2.037H6.279L6.9.974A2,2,0,0,1,8.625,0h4.554A1.968,1.968,0,0,1,14.9.974l.621,1.063h2.668a3.673,3.673,0,0,1,2.573,1.041,3.631,3.631,0,0,1,1.107,2.536v9.327A3.61,3.61,0,0,1,18.239,18.517ZM10.9,5.224a5.031,5.031,0,1,0,5.111,5.031A5.077,5.077,0,0,0,10.9,5.224Z" transform="translate(0 0)" fill="#fff"/>
    <path id="shape" d="M3.818,7.515A3.793,3.793,0,0,1,0,3.758,3.794,3.794,0,0,1,3.818,0,3.793,3.793,0,0,1,7.636,3.758,3.779,3.779,0,0,1,3.818,7.515Z" transform="translate(7.084 6.497)" fill="#fff"/>
  </g>
</svg>
