<svg xmlns="http://www.w3.org/2000/svg" width="33.66" height="34.456" viewBox="0 0 33.66 34.456">
  <g id="icon_send" data-name="icon / send" transform="translate(0.347 0.333)" opacity="0.8">
    <path id="Shape" d="M1.707,25.951a.639.639,0,0,1-.576-.914L5.044,11.508.062.914A.639.639,0,0,1,.639,0,.647.647,0,0,1,.921.066l23,10.864a.644.644,0,0,1,0,1.158L1.989,25.885A.646.646,0,0,1,1.707,25.951Zm19.084-13.8L6.7,13.614,3.047,23.969ZM1.979,1.982,6.7,12.337l14.094-1.468Z" transform="translate(0 10.264) rotate(-25)" fill="#fff" stroke="#fff" stroke-miterlimit="10" stroke-width="0.5"/>
  </g>
</svg>
