<svg xmlns="http://www.w3.org/2000/svg" xmlns:xlink="http://www.w3.org/1999/xlink" width="34.411" height="25.808" viewBox="0 0 34.411 25.808">
  <defs>
    <clipPath id="clip-path">
      <rect width="34.411" height="25.808" fill="none"/>
    </clipPath>
  </defs>
  <g id="swap" clip-path="url(#clip-path)">
    <path id="Shape" d="M31.339,25.808H3.073A3.076,3.076,0,0,1,0,22.736V7.374A3.076,3.076,0,0,1,3.073,4.3H8.537a.615.615,0,0,0,.512-.274l1.67-2.66A3.068,3.068,0,0,1,13.276,0h7.86a3.068,3.068,0,0,1,2.556,1.368l1.67,2.66a.615.615,0,0,0,.512.274h5.465a3.076,3.076,0,0,1,3.073,3.073V22.736A3.076,3.076,0,0,1,31.339,25.808ZM3.073,5.531A1.846,1.846,0,0,0,1.228,7.374V22.736A1.846,1.846,0,0,0,3.073,24.58H31.339a1.846,1.846,0,0,0,1.844-1.844V7.374A1.846,1.846,0,0,0,31.339,5.53H25.874a1.843,1.843,0,0,1-1.535-.82l-1.67-2.66a1.844,1.844,0,0,0-1.534-.822H13.277a1.841,1.841,0,0,0-1.534.821L10.072,4.71a1.839,1.839,0,0,1-1.534.821Z" transform="translate(0 0)" fill="#fff"/>
    <path id="Rectangle_3" data-name="Rectangle 3" d="M1,0H2A1,1,0,0,1,3,1V1A0,0,0,0,1,3,1H0A0,0,0,0,1,0,1V1A1,1,0,0,1,1,0Z" transform="translate(4.901 1.955)" fill="#fff"/>
    <path id="Shape-2" data-name="Shape" d="M12.869,7.374A7.664,7.664,0,0,0,0,2.043L1.306,3.349a5.821,5.821,0,0,1,9.72,4.025H8.891l3.073,3.84,3.072-3.84Z" transform="translate(12.309 6.145)" fill="#fff"/>
    <path id="Shape-3" data-name="Shape" d="M9.832,9.217A5.836,5.836,0,0,1,4.025,3.841h2.12L3.073,0,0,3.841H2.18A7.66,7.66,0,0,0,15.036,9.018L13.73,7.712a5.8,5.8,0,0,1-3.9,1.5" transform="translate(7.681 10.447)" fill="#fff"/>
  </g>
</svg>
