<svg xmlns="http://www.w3.org/2000/svg" xmlns:xlink="http://www.w3.org/1999/xlink" width="20" height="20" viewBox="0 0 20 20">
  <defs>
    <linearGradient id="linear-gradient" x1="0.5" x2="0.5" y2="1" gradientUnits="objectBoundingBox">
      <stop offset="0" stop-color="#4d0cbb"/>
      <stop offset="1" stop-color="#fd0767"/>
    </linearGradient>
  </defs>
  <g id="Group_4019" data-name="Group 4019" transform="translate(0 0)">
    <path id="Combined_Shape" data-name="Combined Shape" d="M10,20A10,10,0,0,1,2.93,2.927l.707.707A9,9,0,1,0,11,1.055V4H10V0a10,10,0,1,1,0,20ZM9,5H8V4h2V5L9,4.707V5Zm3,0H11V4h1V5Z" fill="url(#linear-gradient)"/>
    <rect id="Rectangle" width="4" height="1" transform="translate(8 4)"/>
    <path id="Oval_5" data-name="Oval 5" d="M5.5,6a1.5,1.5,0,0,0,.792-2.774C6.062,3.083,0,0,0,0S4.319,5.567,4.788,5.821A1.493,1.493,0,0,0,5.5,6Z" transform="translate(5 6)" fill="url(#linear-gradient)"/>
  </g>
</svg>
