<svg xmlns="http://www.w3.org/2000/svg" width="21.185" height="21.185" viewBox="0 0 21.185 21.185">
  <path id="user" d="M21.185,10.592A10.592,10.592,0,1,0,3.438,18.4l-.01.009.344.29c.022.019.047.034.069.053.183.151.372.3.564.434.062.045.125.09.188.134q.309.213.632.4l.142.082c.236.134.477.261.724.377l.055.025a10.5,10.5,0,0,0,2.562.811l.071.013c.279.048.561.087.846.112l.1.008c.284.023.572.039.863.039s.573-.015.856-.038l.107-.008q.425-.039.839-.111l.072-.013a10.5,10.5,0,0,0,2.526-.792l.088-.04q.356-.168.7-.361l.169-.1c.207-.122.411-.25.609-.385.071-.049.141-.1.211-.151.169-.122.335-.247.5-.379.036-.029.074-.054.109-.084l.352-.294-.01-.009A10.565,10.565,0,0,0,21.185,10.592Zm-20.414,0a9.822,9.822,0,1,1,16.336,7.343,2.887,2.887,0,0,0-.344-.207L13.5,16.1a.854.854,0,0,1-.475-.768V14.191c.075-.093.155-.2.238-.315A7.849,7.849,0,0,0,14.272,11.9a1.4,1.4,0,0,0,.8-1.267V9.271a1.4,1.4,0,0,0-.342-.912v-1.8A3.107,3.107,0,0,0,14.008,4.3a4.336,4.336,0,0,0-3.415-1.221A4.337,4.337,0,0,0,7.177,4.3,3.107,3.107,0,0,0,6.452,6.56v1.8a1.4,1.4,0,0,0-.342.912v1.365a1.4,1.4,0,0,0,.516,1.087,7.237,7.237,0,0,0,1.191,2.461V15.3a.859.859,0,0,1-.448.754L4.324,17.713a2.784,2.784,0,0,0-.29.183A9.8,9.8,0,0,1,.77,10.592Zm15.584,7.947q-.2.147-.411.283c-.064.042-.127.083-.193.124-.182.112-.367.22-.555.32l-.126.064a9.815,9.815,0,0,1-1.343.569l-.049.017q-.362.12-.733.213h0c-.25.062-.5.113-.756.155l-.021,0c-.239.039-.48.067-.722.088l-.129.01c-.239.018-.48.03-.721.03s-.488-.012-.73-.03l-.126-.01c-.244-.022-.487-.05-.728-.09l-.032-.006a9.785,9.785,0,0,1-1.5-.374l-.045-.015q-.363-.124-.717-.275l-.005,0c-.223-.1-.441-.2-.657-.314l-.084-.044c-.2-.105-.389-.219-.579-.337l-.168-.107c-.175-.114-.347-.233-.515-.359l-.051-.04.037-.021,3.046-1.661A1.629,1.629,0,0,0,8.588,15.3V13.911L8.5,13.8a6.431,6.431,0,0,1-1.156-2.394l-.035-.153-.131-.085a.638.638,0,0,1-.3-.536V9.27A.629.629,0,0,1,7.095,8.8l.127-.115V6.539l0-.05a2.32,2.32,0,0,1,.538-1.679,3.63,3.63,0,0,1,2.836-.957,3.639,3.639,0,0,1,2.83.95,2.359,2.359,0,0,1,.544,1.687l0,2.2.127.115a.63.63,0,0,1,.215.471v1.365a.643.643,0,0,1-.455.607l-.191.059-.062.191a7.126,7.126,0,0,1-.961,1.938c-.1.143-.2.269-.283.366l-.1.109V15.33a1.619,1.619,0,0,0,.9,1.457l3.261,1.63.062.032C16.438,18.48,16.4,18.509,16.354,18.539Z" fill="#fff"/>
</svg>
